<mxfile host="app.diagrams.net" modified="2023-02-23T09:45:58.291Z" agent="5.0 (Windows NT 10.0; Win64; x64) AppleWebKit/537.36 (KHTML, like Gecko) Chrome/110.0.0.0 Safari/537.36" etag="KzdXm7eIL91_TRI0p2ag" version="20.8.21" type="github">
  <diagram id="5weNNMtE1twXbDQk9ajK" name="第 1 页">
    <mxGraphModel dx="1221" dy="1855" grid="1" gridSize="10" guides="1" tooltips="1" connect="1" arrows="1" fold="1" page="1" pageScale="1" pageWidth="827" pageHeight="1169" math="0" shadow="0">
      <root>
        <mxCell id="0" />
        <mxCell id="1" parent="0" />
        <mxCell id="k9kF2WbrBH735vZmDEbr-47" value="" style="ellipse;whiteSpace=wrap;html=1;" parent="1" vertex="1">
          <mxGeometry x="380" y="340" width="250" height="140" as="geometry" />
        </mxCell>
        <mxCell id="k9kF2WbrBH735vZmDEbr-3" value="" style="verticalLabelPosition=bottom;verticalAlign=top;html=1;shape=mxgraph.basic.4_point_star_2;dx=0.8;fillColor=#3399FF;" parent="1" vertex="1">
          <mxGeometry x="540" y="380" width="30" height="30" as="geometry" />
        </mxCell>
        <mxCell id="k9kF2WbrBH735vZmDEbr-48" value="" style="whiteSpace=wrap;html=1;shape=mxgraph.basic.pentagon;fillColor=#3399FF;" parent="1" vertex="1">
          <mxGeometry x="510" y="365" width="20" height="20" as="geometry" />
        </mxCell>
        <mxCell id="k9kF2WbrBH735vZmDEbr-50" value="" style="rhombus;whiteSpace=wrap;html=1;fillColor=#3399FF;" parent="1" vertex="1">
          <mxGeometry x="500" y="410" width="20" height="20" as="geometry" />
        </mxCell>
        <mxCell id="k9kF2WbrBH735vZmDEbr-54" value="" style="whiteSpace=wrap;html=1;shape=mxgraph.basic.pentagon;fillColor=#3399FF;" parent="1" vertex="1">
          <mxGeometry x="480" y="350" width="20" height="20" as="geometry" />
        </mxCell>
        <mxCell id="k9kF2WbrBH735vZmDEbr-55" value="" style="rhombus;whiteSpace=wrap;html=1;fillColor=#3399FF;" parent="1" vertex="1">
          <mxGeometry x="510" y="450" width="20" height="20" as="geometry" />
        </mxCell>
        <mxCell id="k9kF2WbrBH735vZmDEbr-56" value="" style="rhombus;whiteSpace=wrap;html=1;fillColor=#3399FF;" parent="1" vertex="1">
          <mxGeometry x="470" y="410" width="20" height="20" as="geometry" />
        </mxCell>
        <mxCell id="k9kF2WbrBH735vZmDEbr-57" value="" style="rhombus;whiteSpace=wrap;html=1;" parent="1" vertex="1">
          <mxGeometry x="470" y="440" width="20" height="20" as="geometry" />
        </mxCell>
        <mxCell id="k9kF2WbrBH735vZmDEbr-58" value="" style="rhombus;whiteSpace=wrap;html=1;fillColor=#3399FF;" parent="1" vertex="1">
          <mxGeometry x="470" y="440" width="20" height="20" as="geometry" />
        </mxCell>
        <mxCell id="k9kF2WbrBH735vZmDEbr-60" value="" style="whiteSpace=wrap;html=1;shape=mxgraph.basic.pentagon;fillColor=#3399FF;" parent="1" vertex="1">
          <mxGeometry x="480" y="385" width="20" height="20" as="geometry" />
        </mxCell>
        <mxCell id="k9kF2WbrBH735vZmDEbr-61" value="" style="whiteSpace=wrap;html=1;shape=mxgraph.basic.pentagon" parent="1" vertex="1">
          <mxGeometry x="450" y="365" width="20" height="20" as="geometry" />
        </mxCell>
        <mxCell id="k9kF2WbrBH735vZmDEbr-66" value="" style="verticalLabelPosition=bottom;verticalAlign=top;html=1;shape=mxgraph.basic.4_point_star_2;dx=0.8;fillColor=#3399FF;" parent="1" vertex="1">
          <mxGeometry x="580" y="370" width="30" height="30" as="geometry" />
        </mxCell>
        <mxCell id="k9kF2WbrBH735vZmDEbr-67" value="" style="verticalLabelPosition=bottom;verticalAlign=top;html=1;shape=mxgraph.basic.4_point_star_2;dx=0.8;fillColor=#3399FF;" parent="1" vertex="1">
          <mxGeometry x="550" y="420" width="30" height="30" as="geometry" />
        </mxCell>
        <mxCell id="k9kF2WbrBH735vZmDEbr-68" value="" style="verticalLabelPosition=bottom;verticalAlign=top;html=1;shape=mxgraph.basic.4_point_star_2;dx=0.8;fillColor=#3399FF;" parent="1" vertex="1">
          <mxGeometry x="580" y="405" width="30" height="30" as="geometry" />
        </mxCell>
        <mxCell id="k9kF2WbrBH735vZmDEbr-6" value="" style="ellipse;whiteSpace=wrap;html=1;" parent="1" vertex="1">
          <mxGeometry x="90" y="340" width="250" height="140" as="geometry" />
        </mxCell>
        <mxCell id="k9kF2WbrBH735vZmDEbr-1" value="" style="whiteSpace=wrap;html=1;shape=mxgraph.basic.pentagon" parent="1" vertex="1">
          <mxGeometry x="190" y="375" width="20" height="20" as="geometry" />
        </mxCell>
        <mxCell id="k9kF2WbrBH735vZmDEbr-4" value="" style="verticalLabelPosition=bottom;verticalAlign=top;html=1;shape=mxgraph.basic.6_point_star" parent="1" vertex="1">
          <mxGeometry x="120" y="370" width="30" height="20" as="geometry" />
        </mxCell>
        <mxCell id="k9kF2WbrBH735vZmDEbr-7" value="" style="rhombus;whiteSpace=wrap;html=1;" parent="1" vertex="1">
          <mxGeometry x="190" y="415" width="20" height="20" as="geometry" />
        </mxCell>
        <mxCell id="k9kF2WbrBH735vZmDEbr-8" value="" style="verticalLabelPosition=bottom;verticalAlign=top;html=1;shape=mxgraph.basic.6_point_star" parent="1" vertex="1">
          <mxGeometry x="110" y="400" width="30" height="20" as="geometry" />
        </mxCell>
        <mxCell id="k9kF2WbrBH735vZmDEbr-9" value="" style="verticalLabelPosition=bottom;verticalAlign=top;html=1;shape=mxgraph.basic.6_point_star" parent="1" vertex="1">
          <mxGeometry x="140" y="430" width="30" height="20" as="geometry" />
        </mxCell>
        <mxCell id="k9kF2WbrBH735vZmDEbr-10" value="" style="verticalLabelPosition=bottom;verticalAlign=top;html=1;shape=mxgraph.basic.6_point_star" parent="1" vertex="1">
          <mxGeometry x="150" y="390" width="30" height="20" as="geometry" />
        </mxCell>
        <mxCell id="k9kF2WbrBH735vZmDEbr-13" value="" style="whiteSpace=wrap;html=1;shape=mxgraph.basic.pentagon;fillColor=#FF6666;" parent="1" vertex="1">
          <mxGeometry x="220" y="350" width="20" height="20" as="geometry" />
        </mxCell>
        <mxCell id="k9kF2WbrBH735vZmDEbr-14" value="" style="rhombus;whiteSpace=wrap;html=1;" parent="1" vertex="1">
          <mxGeometry x="190" y="450" width="20" height="20" as="geometry" />
        </mxCell>
        <mxCell id="k9kF2WbrBH735vZmDEbr-15" value="" style="rhombus;whiteSpace=wrap;html=1;fillColor=#FF6666;" parent="1" vertex="1">
          <mxGeometry x="240" y="420" width="20" height="20" as="geometry" />
        </mxCell>
        <mxCell id="k9kF2WbrBH735vZmDEbr-17" value="" style="rhombus;whiteSpace=wrap;html=1;fillColor=#FF6666;" parent="1" vertex="1">
          <mxGeometry x="230" y="450" width="20" height="20" as="geometry" />
        </mxCell>
        <mxCell id="k9kF2WbrBH735vZmDEbr-19" value="" style="whiteSpace=wrap;html=1;shape=mxgraph.basic.pentagon;fillColor=#FF6666;" parent="1" vertex="1">
          <mxGeometry x="220" y="390" width="20" height="20" as="geometry" />
        </mxCell>
        <mxCell id="k9kF2WbrBH735vZmDEbr-20" value="" style="whiteSpace=wrap;html=1;shape=mxgraph.basic.pentagon;fillColor=#FF6666;" parent="1" vertex="1">
          <mxGeometry x="250" y="365" width="20" height="20" as="geometry" />
        </mxCell>
        <mxCell id="k9kF2WbrBH735vZmDEbr-69" value="" style="ellipse;whiteSpace=wrap;html=1;aspect=fixed;fillColor=#FF6666;" parent="1" vertex="1">
          <mxGeometry x="270" y="400" width="20" height="20" as="geometry" />
        </mxCell>
        <mxCell id="k9kF2WbrBH735vZmDEbr-70" value="" style="ellipse;whiteSpace=wrap;html=1;aspect=fixed;fillColor=#FF6666;" parent="1" vertex="1">
          <mxGeometry x="270" y="435" width="20" height="20" as="geometry" />
        </mxCell>
        <mxCell id="k9kF2WbrBH735vZmDEbr-71" value="" style="ellipse;whiteSpace=wrap;html=1;aspect=fixed;fillColor=#FF6666;" parent="1" vertex="1">
          <mxGeometry x="300" y="380" width="20" height="20" as="geometry" />
        </mxCell>
        <mxCell id="k9kF2WbrBH735vZmDEbr-72" value="" style="ellipse;whiteSpace=wrap;html=1;aspect=fixed;fillColor=#FF6666;" parent="1" vertex="1">
          <mxGeometry x="310" y="410" width="20" height="20" as="geometry" />
        </mxCell>
        <mxCell id="k9kF2WbrBH735vZmDEbr-73" value="" style="ellipse;whiteSpace=wrap;html=1;aspect=fixed;" parent="1" vertex="1">
          <mxGeometry x="430" y="390" width="20" height="20" as="geometry" />
        </mxCell>
        <mxCell id="k9kF2WbrBH735vZmDEbr-76" value="" style="ellipse;whiteSpace=wrap;html=1;aspect=fixed;" parent="1" vertex="1">
          <mxGeometry x="394" y="380" width="20" height="20" as="geometry" />
        </mxCell>
        <mxCell id="k9kF2WbrBH735vZmDEbr-77" value="" style="ellipse;whiteSpace=wrap;html=1;aspect=fixed;" parent="1" vertex="1">
          <mxGeometry x="404" y="420" width="20" height="20" as="geometry" />
        </mxCell>
        <mxCell id="k9kF2WbrBH735vZmDEbr-78" value="" style="ellipse;whiteSpace=wrap;html=1;aspect=fixed;fillColor=#3399FF;" parent="1" vertex="1">
          <mxGeometry x="440" y="435" width="20" height="20" as="geometry" />
        </mxCell>
        <mxCell id="k9kF2WbrBH735vZmDEbr-79" value="&lt;font style=&quot;font-size: 15px;&quot;&gt;源域&lt;/font&gt;" style="text;html=1;strokeColor=none;fillColor=none;align=center;verticalAlign=middle;whiteSpace=wrap;rounded=0;" parent="1" vertex="1">
          <mxGeometry x="185" y="300" width="60" height="30" as="geometry" />
        </mxCell>
        <mxCell id="k9kF2WbrBH735vZmDEbr-80" value="目标域" style="text;html=1;strokeColor=none;fillColor=none;align=center;verticalAlign=middle;whiteSpace=wrap;rounded=0;fontSize=15;" parent="1" vertex="1">
          <mxGeometry x="480" y="300" width="60" height="30" as="geometry" />
        </mxCell>
        <mxCell id="k9kF2WbrBH735vZmDEbr-81" value="" style="verticalLabelPosition=bottom;verticalAlign=top;html=1;shape=mxgraph.basic.6_point_star;fillColor=#FF6666;" parent="1" vertex="1">
          <mxGeometry x="120" y="370" width="30" height="20" as="geometry" />
        </mxCell>
        <mxCell id="k9kF2WbrBH735vZmDEbr-82" value="" style="verticalLabelPosition=bottom;verticalAlign=top;html=1;shape=mxgraph.basic.6_point_star;fillColor=#FF6666;" parent="1" vertex="1">
          <mxGeometry x="110" y="400" width="30" height="20" as="geometry" />
        </mxCell>
        <mxCell id="k9kF2WbrBH735vZmDEbr-83" value="" style="verticalLabelPosition=bottom;verticalAlign=top;html=1;shape=mxgraph.basic.6_point_star;fillColor=#FF6666;" parent="1" vertex="1">
          <mxGeometry x="150" y="390" width="30" height="20" as="geometry" />
        </mxCell>
        <mxCell id="k9kF2WbrBH735vZmDEbr-84" value="" style="verticalLabelPosition=bottom;verticalAlign=top;html=1;shape=mxgraph.basic.6_point_star;fillColor=#FF6666;" parent="1" vertex="1">
          <mxGeometry x="140" y="430" width="30" height="20" as="geometry" />
        </mxCell>
        <mxCell id="k9kF2WbrBH735vZmDEbr-85" value="" style="rhombus;whiteSpace=wrap;html=1;fillColor=#FF6666;" parent="1" vertex="1">
          <mxGeometry x="190" y="450" width="20" height="20" as="geometry" />
        </mxCell>
        <mxCell id="k9kF2WbrBH735vZmDEbr-86" value="" style="rhombus;whiteSpace=wrap;html=1;fillColor=#FF6666;" parent="1" vertex="1">
          <mxGeometry x="190" y="415" width="20" height="20" as="geometry" />
        </mxCell>
        <mxCell id="k9kF2WbrBH735vZmDEbr-87" value="" style="whiteSpace=wrap;html=1;shape=mxgraph.basic.pentagon;fillColor=#FF6666;" parent="1" vertex="1">
          <mxGeometry x="190" y="375" width="20" height="20" as="geometry" />
        </mxCell>
        <mxCell id="k9kF2WbrBH735vZmDEbr-89" value="" style="ellipse;whiteSpace=wrap;html=1;aspect=fixed;fillColor=#3399FF;" parent="1" vertex="1">
          <mxGeometry x="394" y="380" width="20" height="20" as="geometry" />
        </mxCell>
        <mxCell id="k9kF2WbrBH735vZmDEbr-90" value="" style="ellipse;whiteSpace=wrap;html=1;aspect=fixed;fillColor=#3399FF;" parent="1" vertex="1">
          <mxGeometry x="404" y="420" width="20" height="20" as="geometry" />
        </mxCell>
        <mxCell id="k9kF2WbrBH735vZmDEbr-91" value="" style="ellipse;whiteSpace=wrap;html=1;aspect=fixed;fillColor=#3399FF;" parent="1" vertex="1">
          <mxGeometry x="430" y="390" width="20" height="20" as="geometry" />
        </mxCell>
        <mxCell id="k9kF2WbrBH735vZmDEbr-92" value="" style="whiteSpace=wrap;html=1;shape=mxgraph.basic.pentagon;fillColor=#3399FF;" parent="1" vertex="1">
          <mxGeometry x="450" y="365" width="20" height="20" as="geometry" />
        </mxCell>
        <mxCell id="r62l4i-lVo5JHtnVVHP4-1" value="" style="ellipse;whiteSpace=wrap;html=1;" parent="1" vertex="1">
          <mxGeometry x="1363" y="-318" width="200" height="120" as="geometry" />
        </mxCell>
        <mxCell id="r62l4i-lVo5JHtnVVHP4-2" value="" style="ellipse;whiteSpace=wrap;html=1;aspect=fixed;strokeColor=#FF3333;" parent="1" vertex="1">
          <mxGeometry x="1464" y="-290" width="19" height="19" as="geometry" />
        </mxCell>
        <mxCell id="r62l4i-lVo5JHtnVVHP4-3" style="edgeStyle=none;rounded=0;orthogonalLoop=1;jettySize=auto;html=1;exitX=0.5;exitY=1;exitDx=0;exitDy=0;entryX=0.5;entryY=0;entryDx=0;entryDy=0;" parent="1" source="r62l4i-lVo5JHtnVVHP4-4" target="r62l4i-lVo5JHtnVVHP4-116" edge="1">
          <mxGeometry relative="1" as="geometry" />
        </mxCell>
        <mxCell id="r62l4i-lVo5JHtnVVHP4-4" value="" style="ellipse;whiteSpace=wrap;html=1;" parent="1" vertex="1">
          <mxGeometry x="1607" y="-165" width="200" height="120" as="geometry" />
        </mxCell>
        <mxCell id="r62l4i-lVo5JHtnVVHP4-5" style="rounded=0;orthogonalLoop=1;jettySize=auto;html=1;exitX=0.5;exitY=1;exitDx=0;exitDy=0;entryX=0.5;entryY=0;entryDx=0;entryDy=0;" parent="1" source="r62l4i-lVo5JHtnVVHP4-6" target="r62l4i-lVo5JHtnVVHP4-115" edge="1">
          <mxGeometry relative="1" as="geometry" />
        </mxCell>
        <mxCell id="r62l4i-lVo5JHtnVVHP4-6" value="" style="ellipse;whiteSpace=wrap;html=1;" parent="1" vertex="1">
          <mxGeometry x="1363" y="-162" width="200" height="120" as="geometry" />
        </mxCell>
        <mxCell id="r62l4i-lVo5JHtnVVHP4-7" value="" style="ellipse;whiteSpace=wrap;html=1;aspect=fixed;shadow=0;dashed=1;" parent="1" vertex="1">
          <mxGeometry x="1737" y="-134" width="64" height="64" as="geometry" />
        </mxCell>
        <mxCell id="r62l4i-lVo5JHtnVVHP4-8" value="" style="ellipse;whiteSpace=wrap;html=1;aspect=fixed;shadow=0;dashed=1;" parent="1" vertex="1">
          <mxGeometry x="1614" y="-133" width="64" height="64" as="geometry" />
        </mxCell>
        <mxCell id="r62l4i-lVo5JHtnVVHP4-9" value="" style="ellipse;whiteSpace=wrap;html=1;aspect=fixed;shadow=0;dashed=1;" parent="1" vertex="1">
          <mxGeometry x="1433" y="-109" width="64" height="64" as="geometry" />
        </mxCell>
        <mxCell id="r62l4i-lVo5JHtnVVHP4-10" style="edgeStyle=orthogonalEdgeStyle;rounded=0;orthogonalLoop=1;jettySize=auto;html=1;exitX=0.5;exitY=1;exitDx=0;exitDy=0;entryX=0.5;entryY=0;entryDx=0;entryDy=0;" parent="1" source="r62l4i-lVo5JHtnVVHP4-1" target="r62l4i-lVo5JHtnVVHP4-6" edge="1">
          <mxGeometry relative="1" as="geometry" />
        </mxCell>
        <mxCell id="r62l4i-lVo5JHtnVVHP4-11" value="" style="verticalLabelPosition=bottom;verticalAlign=top;html=1;shape=mxgraph.basic.acute_triangle;dx=0.5;" parent="1" vertex="1">
          <mxGeometry x="1453" y="-98" width="10" height="8" as="geometry" />
        </mxCell>
        <mxCell id="r62l4i-lVo5JHtnVVHP4-12" value="源域" style="text;html=1;strokeColor=none;fillColor=none;align=center;verticalAlign=middle;whiteSpace=wrap;rounded=0;" parent="1" vertex="1">
          <mxGeometry x="1245" y="-278" width="60" height="30" as="geometry" />
        </mxCell>
        <mxCell id="r62l4i-lVo5JHtnVVHP4-13" value="目标域" style="text;html=1;strokeColor=none;fillColor=none;align=center;verticalAlign=middle;whiteSpace=wrap;rounded=0;" parent="1" vertex="1">
          <mxGeometry x="1250" y="-232" width="60" height="30" as="geometry" />
        </mxCell>
        <mxCell id="r62l4i-lVo5JHtnVVHP4-14" value="" style="verticalLabelPosition=bottom;verticalAlign=top;html=1;shape=mxgraph.basic.acute_triangle;dx=0.5;" parent="1" vertex="1">
          <mxGeometry x="1446" y="-85" width="10" height="8" as="geometry" />
        </mxCell>
        <mxCell id="r62l4i-lVo5JHtnVVHP4-15" value="" style="verticalLabelPosition=bottom;verticalAlign=top;html=1;shape=mxgraph.basic.acute_triangle;dx=0.5;" parent="1" vertex="1">
          <mxGeometry x="1469" y="-95" width="10" height="8" as="geometry" />
        </mxCell>
        <mxCell id="r62l4i-lVo5JHtnVVHP4-16" value="" style="verticalLabelPosition=bottom;verticalAlign=top;html=1;shape=mxgraph.basic.acute_triangle;dx=0.5;" parent="1" vertex="1">
          <mxGeometry x="1460" y="-82" width="10" height="8" as="geometry" />
        </mxCell>
        <mxCell id="r62l4i-lVo5JHtnVVHP4-17" value="" style="verticalLabelPosition=bottom;verticalAlign=top;html=1;shape=mxgraph.basic.acute_triangle;dx=0.5;" parent="1" vertex="1">
          <mxGeometry x="1473" y="-81" width="10" height="8" as="geometry" />
        </mxCell>
        <mxCell id="r62l4i-lVo5JHtnVVHP4-18" value="" style="verticalLabelPosition=bottom;verticalAlign=top;html=1;shape=mxgraph.basic.acute_triangle;dx=0.5;" parent="1" vertex="1">
          <mxGeometry x="1452" y="-68" width="10" height="8" as="geometry" />
        </mxCell>
        <mxCell id="r62l4i-lVo5JHtnVVHP4-19" value="" style="verticalLabelPosition=bottom;verticalAlign=top;html=1;shape=mxgraph.basic.acute_triangle;dx=0.5;" parent="1" vertex="1">
          <mxGeometry x="1467" y="-68" width="10" height="8" as="geometry" />
        </mxCell>
        <mxCell id="r62l4i-lVo5JHtnVVHP4-20" value="" style="verticalLabelPosition=bottom;verticalAlign=top;html=1;shape=mxgraph.basic.acute_triangle;dx=0.5;" parent="1" vertex="1">
          <mxGeometry x="1442" y="-73" width="10" height="8" as="geometry" />
        </mxCell>
        <mxCell id="r62l4i-lVo5JHtnVVHP4-21" value="" style="ellipse;whiteSpace=wrap;html=1;aspect=fixed;shadow=0;dashed=1;" parent="1" vertex="1">
          <mxGeometry x="1371" y="-135" width="64" height="64" as="geometry" />
        </mxCell>
        <mxCell id="r62l4i-lVo5JHtnVVHP4-22" value="" style="verticalLabelPosition=bottom;verticalAlign=top;html=1;shape=mxgraph.basic.rect;fillColor2=none;strokeWidth=1;size=20;indent=5;" parent="1" vertex="1">
          <mxGeometry x="1381" y="-122" width="10" height="10" as="geometry" />
        </mxCell>
        <mxCell id="r62l4i-lVo5JHtnVVHP4-23" value="" style="verticalLabelPosition=bottom;verticalAlign=top;html=1;shape=mxgraph.basic.rect;fillColor2=none;strokeWidth=1;size=20;indent=5;" parent="1" vertex="1">
          <mxGeometry x="1387" y="-108" width="10" height="10" as="geometry" />
        </mxCell>
        <mxCell id="r62l4i-lVo5JHtnVVHP4-24" value="" style="verticalLabelPosition=bottom;verticalAlign=top;html=1;shape=mxgraph.basic.rect;fillColor2=none;strokeWidth=1;size=20;indent=5;" parent="1" vertex="1">
          <mxGeometry x="1401" y="-104" width="10" height="10" as="geometry" />
        </mxCell>
        <mxCell id="r62l4i-lVo5JHtnVVHP4-25" value="" style="verticalLabelPosition=bottom;verticalAlign=top;html=1;shape=mxgraph.basic.rect;fillColor2=none;strokeWidth=1;size=20;indent=5;" parent="1" vertex="1">
          <mxGeometry x="1398" y="-121" width="10" height="10" as="geometry" />
        </mxCell>
        <mxCell id="r62l4i-lVo5JHtnVVHP4-26" value="" style="verticalLabelPosition=bottom;verticalAlign=top;html=1;shape=mxgraph.basic.rect;fillColor2=none;strokeWidth=1;size=20;indent=5;" parent="1" vertex="1">
          <mxGeometry x="1415" y="-116" width="10" height="10" as="geometry" />
        </mxCell>
        <mxCell id="r62l4i-lVo5JHtnVVHP4-27" value="" style="verticalLabelPosition=bottom;verticalAlign=top;html=1;shape=mxgraph.basic.rect;fillColor2=none;strokeWidth=1;size=20;indent=5;" parent="1" vertex="1">
          <mxGeometry x="1387" y="-90" width="10" height="10" as="geometry" />
        </mxCell>
        <mxCell id="r62l4i-lVo5JHtnVVHP4-28" value="" style="verticalLabelPosition=bottom;verticalAlign=top;html=1;shape=mxgraph.basic.rect;fillColor2=none;strokeWidth=1;size=20;indent=5;" parent="1" vertex="1">
          <mxGeometry x="1415" y="-96" width="10" height="10" as="geometry" />
        </mxCell>
        <mxCell id="r62l4i-lVo5JHtnVVHP4-29" value="" style="verticalLabelPosition=bottom;verticalAlign=top;html=1;shape=mxgraph.basic.rect;fillColor2=none;strokeWidth=1;size=20;indent=5;" parent="1" vertex="1">
          <mxGeometry x="1402" y="-86" width="10" height="10" as="geometry" />
        </mxCell>
        <mxCell id="r62l4i-lVo5JHtnVVHP4-30" value="" style="ellipse;whiteSpace=wrap;html=1;aspect=fixed;shadow=0;dashed=1;" parent="1" vertex="1">
          <mxGeometry x="1495" y="-138" width="64" height="64" as="geometry" />
        </mxCell>
        <mxCell id="r62l4i-lVo5JHtnVVHP4-31" value="" style="ellipse;whiteSpace=wrap;html=1;aspect=fixed;" parent="1" vertex="1">
          <mxGeometry x="1515" y="-120" width="10" height="10" as="geometry" />
        </mxCell>
        <mxCell id="r62l4i-lVo5JHtnVVHP4-32" value="" style="ellipse;whiteSpace=wrap;html=1;aspect=fixed;" parent="1" vertex="1">
          <mxGeometry x="1525" y="-108" width="10" height="10" as="geometry" />
        </mxCell>
        <mxCell id="r62l4i-lVo5JHtnVVHP4-33" value="" style="ellipse;whiteSpace=wrap;html=1;aspect=fixed;" parent="1" vertex="1">
          <mxGeometry x="1508" y="-101" width="10" height="10" as="geometry" />
        </mxCell>
        <mxCell id="r62l4i-lVo5JHtnVVHP4-34" value="" style="ellipse;whiteSpace=wrap;html=1;aspect=fixed;" parent="1" vertex="1">
          <mxGeometry x="1519" y="-93" width="10" height="10" as="geometry" />
        </mxCell>
        <mxCell id="r62l4i-lVo5JHtnVVHP4-35" value="" style="ellipse;whiteSpace=wrap;html=1;aspect=fixed;" parent="1" vertex="1">
          <mxGeometry x="1534" y="-98" width="10" height="10" as="geometry" />
        </mxCell>
        <mxCell id="r62l4i-lVo5JHtnVVHP4-36" value="" style="ellipse;whiteSpace=wrap;html=1;aspect=fixed;" parent="1" vertex="1">
          <mxGeometry x="1531" y="-119" width="10" height="10" as="geometry" />
        </mxCell>
        <mxCell id="r62l4i-lVo5JHtnVVHP4-37" value="" style="ellipse;whiteSpace=wrap;html=1;aspect=fixed;" parent="1" vertex="1">
          <mxGeometry x="1504" y="-113" width="10" height="10" as="geometry" />
        </mxCell>
        <mxCell id="r62l4i-lVo5JHtnVVHP4-38" value="" style="ellipse;whiteSpace=wrap;html=1;aspect=fixed;" parent="1" vertex="1">
          <mxGeometry x="1542" y="-109" width="10" height="10" as="geometry" />
        </mxCell>
        <mxCell id="r62l4i-lVo5JHtnVVHP4-39" value="" style="verticalLabelPosition=bottom;verticalAlign=top;html=1;shape=mxgraph.basic.rect;fillColor2=none;strokeWidth=1;size=20;indent=5;" parent="1" vertex="1">
          <mxGeometry x="1403" y="-285" width="10" height="10" as="geometry" />
        </mxCell>
        <mxCell id="r62l4i-lVo5JHtnVVHP4-40" value="" style="verticalLabelPosition=bottom;verticalAlign=top;html=1;shape=mxgraph.basic.acute_triangle;dx=0.5;" parent="1" vertex="1">
          <mxGeometry x="1489" y="-287" width="10" height="8" as="geometry" />
        </mxCell>
        <mxCell id="r62l4i-lVo5JHtnVVHP4-41" value="" style="ellipse;whiteSpace=wrap;html=1;aspect=fixed;" parent="1" vertex="1">
          <mxGeometry x="1433" y="-250" width="10" height="10" as="geometry" />
        </mxCell>
        <mxCell id="r62l4i-lVo5JHtnVVHP4-42" value="" style="verticalLabelPosition=bottom;verticalAlign=top;html=1;shape=mxgraph.basic.rect;fillColor2=none;strokeWidth=1;size=20;indent=5;" parent="1" vertex="1">
          <mxGeometry x="1432" y="-275" width="10" height="10" as="geometry" />
        </mxCell>
        <mxCell id="r62l4i-lVo5JHtnVVHP4-43" value="" style="verticalLabelPosition=bottom;verticalAlign=top;html=1;shape=mxgraph.basic.rect;fillColor2=none;strokeWidth=1;size=20;indent=5;" parent="1" vertex="1">
          <mxGeometry x="1465" y="-265" width="10" height="10" as="geometry" />
        </mxCell>
        <mxCell id="r62l4i-lVo5JHtnVVHP4-44" value="" style="verticalLabelPosition=bottom;verticalAlign=top;html=1;shape=mxgraph.basic.rect;fillColor2=none;strokeWidth=1;size=20;indent=5;" parent="1" vertex="1">
          <mxGeometry x="1440" y="-229" width="10" height="10" as="geometry" />
        </mxCell>
        <mxCell id="r62l4i-lVo5JHtnVVHP4-45" value="" style="verticalLabelPosition=bottom;verticalAlign=top;html=1;shape=mxgraph.basic.rect;fillColor2=none;strokeWidth=1;size=20;indent=5;" parent="1" vertex="1">
          <mxGeometry x="1462" y="-245" width="10" height="10" as="geometry" />
        </mxCell>
        <mxCell id="r62l4i-lVo5JHtnVVHP4-46" value="" style="verticalLabelPosition=bottom;verticalAlign=top;html=1;shape=mxgraph.basic.rect;fillColor2=none;strokeWidth=1;size=20;indent=5;" parent="1" vertex="1">
          <mxGeometry x="1507" y="-235" width="10" height="10" as="geometry" />
        </mxCell>
        <mxCell id="r62l4i-lVo5JHtnVVHP4-48" value="" style="verticalLabelPosition=bottom;verticalAlign=top;html=1;shape=mxgraph.basic.rect;fillColor2=none;strokeWidth=1;size=20;indent=5;" parent="1" vertex="1">
          <mxGeometry x="1526" y="-259" width="10" height="10" as="geometry" />
        </mxCell>
        <mxCell id="r62l4i-lVo5JHtnVVHP4-49" value="" style="verticalLabelPosition=bottom;verticalAlign=top;html=1;shape=mxgraph.basic.rect;fillColor2=none;strokeWidth=1;size=20;indent=5;" parent="1" vertex="1">
          <mxGeometry x="1393" y="-244" width="10" height="10" as="geometry" />
        </mxCell>
        <mxCell id="r62l4i-lVo5JHtnVVHP4-50" value="" style="verticalLabelPosition=bottom;verticalAlign=top;html=1;shape=mxgraph.basic.acute_triangle;dx=0.5;" parent="1" vertex="1">
          <mxGeometry x="1499" y="-254" width="10" height="8" as="geometry" />
        </mxCell>
        <mxCell id="r62l4i-lVo5JHtnVVHP4-51" value="" style="verticalLabelPosition=bottom;verticalAlign=top;html=1;shape=mxgraph.basic.acute_triangle;dx=0.5;" parent="1" vertex="1">
          <mxGeometry x="1402" y="-267" width="10" height="8" as="geometry" />
        </mxCell>
        <mxCell id="r62l4i-lVo5JHtnVVHP4-52" value="" style="verticalLabelPosition=bottom;verticalAlign=top;html=1;shape=mxgraph.basic.acute_triangle;dx=0.5;" parent="1" vertex="1">
          <mxGeometry x="1519" y="-283" width="10" height="8" as="geometry" />
        </mxCell>
        <mxCell id="r62l4i-lVo5JHtnVVHP4-53" value="" style="verticalLabelPosition=bottom;verticalAlign=top;html=1;shape=mxgraph.basic.acute_triangle;dx=0.5;" parent="1" vertex="1">
          <mxGeometry x="1411" y="-245" width="10" height="8" as="geometry" />
        </mxCell>
        <mxCell id="r62l4i-lVo5JHtnVVHP4-54" value="" style="verticalLabelPosition=bottom;verticalAlign=top;html=1;shape=mxgraph.basic.acute_triangle;dx=0.5;" parent="1" vertex="1">
          <mxGeometry x="1481" y="-231" width="10" height="8" as="geometry" />
        </mxCell>
        <mxCell id="r62l4i-lVo5JHtnVVHP4-55" value="" style="verticalLabelPosition=bottom;verticalAlign=top;html=1;shape=mxgraph.basic.acute_triangle;dx=0.5;" parent="1" vertex="1">
          <mxGeometry x="1447" y="-294" width="10" height="8" as="geometry" />
        </mxCell>
        <mxCell id="r62l4i-lVo5JHtnVVHP4-56" value="" style="verticalLabelPosition=bottom;verticalAlign=top;html=1;shape=mxgraph.basic.acute_triangle;dx=0.5;" parent="1" vertex="1">
          <mxGeometry x="1447" y="-262" width="10" height="8" as="geometry" />
        </mxCell>
        <mxCell id="r62l4i-lVo5JHtnVVHP4-57" value="" style="ellipse;whiteSpace=wrap;html=1;aspect=fixed;" parent="1" vertex="1">
          <mxGeometry x="1379" y="-268" width="10" height="10" as="geometry" />
        </mxCell>
        <mxCell id="r62l4i-lVo5JHtnVVHP4-58" value="" style="ellipse;whiteSpace=wrap;html=1;aspect=fixed;" parent="1" vertex="1">
          <mxGeometry x="1461" y="-227" width="10" height="10" as="geometry" />
        </mxCell>
        <mxCell id="r62l4i-lVo5JHtnVVHP4-59" value="" style="ellipse;whiteSpace=wrap;html=1;aspect=fixed;" parent="1" vertex="1">
          <mxGeometry x="1482" y="-251" width="10" height="10" as="geometry" />
        </mxCell>
        <mxCell id="r62l4i-lVo5JHtnVVHP4-60" value="" style="ellipse;whiteSpace=wrap;html=1;aspect=fixed;" parent="1" vertex="1">
          <mxGeometry x="1470" y="-286" width="10" height="10" as="geometry" />
        </mxCell>
        <mxCell id="r62l4i-lVo5JHtnVVHP4-61" value="" style="ellipse;whiteSpace=wrap;html=1;aspect=fixed;" parent="1" vertex="1">
          <mxGeometry x="1498" y="-273" width="10" height="10" as="geometry" />
        </mxCell>
        <mxCell id="r62l4i-lVo5JHtnVVHP4-62" value="" style="ellipse;whiteSpace=wrap;html=1;aspect=fixed;" parent="1" vertex="1">
          <mxGeometry x="1415" y="-228" width="10" height="10" as="geometry" />
        </mxCell>
        <mxCell id="r62l4i-lVo5JHtnVVHP4-63" value="" style="ellipse;whiteSpace=wrap;html=1;aspect=fixed;" parent="1" vertex="1">
          <mxGeometry x="1532" y="-240" width="10" height="10" as="geometry" />
        </mxCell>
        <mxCell id="r62l4i-lVo5JHtnVVHP4-64" style="edgeStyle=orthogonalEdgeStyle;rounded=0;orthogonalLoop=1;jettySize=auto;html=1;exitX=0.5;exitY=1;exitDx=0;exitDy=0;entryX=0.5;entryY=0;entryDx=0;entryDy=0;" parent="1" source="r62l4i-lVo5JHtnVVHP4-65" target="r62l4i-lVo5JHtnVVHP4-4" edge="1">
          <mxGeometry relative="1" as="geometry" />
        </mxCell>
        <mxCell id="r62l4i-lVo5JHtnVVHP4-65" value="" style="ellipse;whiteSpace=wrap;html=1;" parent="1" vertex="1">
          <mxGeometry x="1607" y="-320" width="200" height="120" as="geometry" />
        </mxCell>
        <mxCell id="r62l4i-lVo5JHtnVVHP4-66" value="" style="verticalLabelPosition=bottom;verticalAlign=top;html=1;shape=mxgraph.basic.acute_triangle;dx=0.5;" parent="1" vertex="1">
          <mxGeometry x="1635" y="-121" width="10" height="8" as="geometry" />
        </mxCell>
        <mxCell id="r62l4i-lVo5JHtnVVHP4-67" value="" style="verticalLabelPosition=bottom;verticalAlign=top;html=1;shape=mxgraph.basic.acute_triangle;dx=0.5;" parent="1" vertex="1">
          <mxGeometry x="1628" y="-108" width="10" height="8" as="geometry" />
        </mxCell>
        <mxCell id="r62l4i-lVo5JHtnVVHP4-68" value="" style="verticalLabelPosition=bottom;verticalAlign=top;html=1;shape=mxgraph.basic.acute_triangle;dx=0.5;" parent="1" vertex="1">
          <mxGeometry x="1651" y="-118" width="10" height="8" as="geometry" />
        </mxCell>
        <mxCell id="r62l4i-lVo5JHtnVVHP4-69" value="" style="verticalLabelPosition=bottom;verticalAlign=top;html=1;shape=mxgraph.basic.acute_triangle;dx=0.5;" parent="1" vertex="1">
          <mxGeometry x="1642" y="-105" width="10" height="8" as="geometry" />
        </mxCell>
        <mxCell id="r62l4i-lVo5JHtnVVHP4-70" value="" style="verticalLabelPosition=bottom;verticalAlign=top;html=1;shape=mxgraph.basic.acute_triangle;dx=0.5;" parent="1" vertex="1">
          <mxGeometry x="1655" y="-104" width="10" height="8" as="geometry" />
        </mxCell>
        <mxCell id="r62l4i-lVo5JHtnVVHP4-71" value="" style="verticalLabelPosition=bottom;verticalAlign=top;html=1;shape=mxgraph.basic.acute_triangle;dx=0.5;" parent="1" vertex="1">
          <mxGeometry x="1634" y="-91" width="10" height="8" as="geometry" />
        </mxCell>
        <mxCell id="r62l4i-lVo5JHtnVVHP4-72" value="" style="verticalLabelPosition=bottom;verticalAlign=top;html=1;shape=mxgraph.basic.acute_triangle;dx=0.5;" parent="1" vertex="1">
          <mxGeometry x="1649" y="-91" width="10" height="8" as="geometry" />
        </mxCell>
        <mxCell id="r62l4i-lVo5JHtnVVHP4-73" value="" style="verticalLabelPosition=bottom;verticalAlign=top;html=1;shape=mxgraph.basic.acute_triangle;dx=0.5;" parent="1" vertex="1">
          <mxGeometry x="1624" y="-96" width="10" height="8" as="geometry" />
        </mxCell>
        <mxCell id="r62l4i-lVo5JHtnVVHP4-74" value="" style="ellipse;whiteSpace=wrap;html=1;aspect=fixed;shadow=0;dashed=1;" parent="1" vertex="1">
          <mxGeometry x="1676" y="-161" width="64" height="64" as="geometry" />
        </mxCell>
        <mxCell id="r62l4i-lVo5JHtnVVHP4-75" value="" style="ellipse;whiteSpace=wrap;html=1;aspect=fixed;" parent="1" vertex="1">
          <mxGeometry x="1696" y="-143" width="10" height="10" as="geometry" />
        </mxCell>
        <mxCell id="r62l4i-lVo5JHtnVVHP4-76" value="" style="ellipse;whiteSpace=wrap;html=1;aspect=fixed;" parent="1" vertex="1">
          <mxGeometry x="1706" y="-131" width="10" height="10" as="geometry" />
        </mxCell>
        <mxCell id="r62l4i-lVo5JHtnVVHP4-77" value="" style="ellipse;whiteSpace=wrap;html=1;aspect=fixed;" parent="1" vertex="1">
          <mxGeometry x="1689" y="-124" width="10" height="10" as="geometry" />
        </mxCell>
        <mxCell id="r62l4i-lVo5JHtnVVHP4-78" value="" style="ellipse;whiteSpace=wrap;html=1;aspect=fixed;" parent="1" vertex="1">
          <mxGeometry x="1700" y="-116" width="10" height="10" as="geometry" />
        </mxCell>
        <mxCell id="r62l4i-lVo5JHtnVVHP4-79" value="" style="ellipse;whiteSpace=wrap;html=1;aspect=fixed;" parent="1" vertex="1">
          <mxGeometry x="1715" y="-121" width="10" height="10" as="geometry" />
        </mxCell>
        <mxCell id="r62l4i-lVo5JHtnVVHP4-80" value="" style="ellipse;whiteSpace=wrap;html=1;aspect=fixed;" parent="1" vertex="1">
          <mxGeometry x="1712" y="-142" width="10" height="10" as="geometry" />
        </mxCell>
        <mxCell id="r62l4i-lVo5JHtnVVHP4-81" value="" style="ellipse;whiteSpace=wrap;html=1;aspect=fixed;" parent="1" vertex="1">
          <mxGeometry x="1685" y="-136" width="10" height="10" as="geometry" />
        </mxCell>
        <mxCell id="r62l4i-lVo5JHtnVVHP4-82" value="" style="ellipse;whiteSpace=wrap;html=1;aspect=fixed;" parent="1" vertex="1">
          <mxGeometry x="1723" y="-132" width="10" height="10" as="geometry" />
        </mxCell>
        <mxCell id="r62l4i-lVo5JHtnVVHP4-83" value="" style="verticalLabelPosition=bottom;verticalAlign=top;html=1;shape=mxgraph.basic.star;shadow=0;" parent="1" vertex="1">
          <mxGeometry x="1753" y="-123" width="10" height="10" as="geometry" />
        </mxCell>
        <mxCell id="r62l4i-lVo5JHtnVVHP4-84" value="" style="verticalLabelPosition=bottom;verticalAlign=top;html=1;shape=mxgraph.basic.star;shadow=0;" parent="1" vertex="1">
          <mxGeometry x="1763" y="-104" width="10" height="10" as="geometry" />
        </mxCell>
        <mxCell id="r62l4i-lVo5JHtnVVHP4-85" value="" style="verticalLabelPosition=bottom;verticalAlign=top;html=1;shape=mxgraph.basic.star;shadow=0;" parent="1" vertex="1">
          <mxGeometry x="1773" y="-125" width="10" height="10" as="geometry" />
        </mxCell>
        <mxCell id="r62l4i-lVo5JHtnVVHP4-86" value="" style="verticalLabelPosition=bottom;verticalAlign=top;html=1;shape=mxgraph.basic.star;shadow=0;" parent="1" vertex="1">
          <mxGeometry x="1778" y="-110" width="10" height="10" as="geometry" />
        </mxCell>
        <mxCell id="r62l4i-lVo5JHtnVVHP4-87" value="" style="verticalLabelPosition=bottom;verticalAlign=top;html=1;shape=mxgraph.basic.star;shadow=0;" parent="1" vertex="1">
          <mxGeometry x="1748" y="-109" width="10" height="10" as="geometry" />
        </mxCell>
        <mxCell id="r62l4i-lVo5JHtnVVHP4-88" value="" style="verticalLabelPosition=bottom;verticalAlign=top;html=1;shape=mxgraph.basic.star;shadow=0;" parent="1" vertex="1">
          <mxGeometry x="1752" y="-93" width="10" height="10" as="geometry" />
        </mxCell>
        <mxCell id="r62l4i-lVo5JHtnVVHP4-89" value="" style="verticalLabelPosition=bottom;verticalAlign=top;html=1;shape=mxgraph.basic.star;shadow=0;" parent="1" vertex="1">
          <mxGeometry x="1775" y="-93" width="10" height="10" as="geometry" />
        </mxCell>
        <mxCell id="r62l4i-lVo5JHtnVVHP4-90" value="" style="verticalLabelPosition=bottom;verticalAlign=top;html=1;shape=mxgraph.basic.star;shadow=0;" parent="1" vertex="1">
          <mxGeometry x="1764" y="-117" width="10" height="10" as="geometry" />
        </mxCell>
        <mxCell id="r62l4i-lVo5JHtnVVHP4-91" value="" style="ellipse;whiteSpace=wrap;html=1;aspect=fixed;" parent="1" vertex="1">
          <mxGeometry x="1645" y="-286" width="10" height="10" as="geometry" />
        </mxCell>
        <mxCell id="r62l4i-lVo5JHtnVVHP4-92" value="" style="verticalLabelPosition=bottom;verticalAlign=top;html=1;shape=mxgraph.basic.acute_triangle;dx=0.5;" parent="1" vertex="1">
          <mxGeometry x="1651" y="-257" width="10" height="8" as="geometry" />
        </mxCell>
        <mxCell id="r62l4i-lVo5JHtnVVHP4-93" value="" style="verticalLabelPosition=bottom;verticalAlign=top;html=1;shape=mxgraph.basic.star;shadow=0;" parent="1" vertex="1">
          <mxGeometry x="1763" y="-278" width="10" height="10" as="geometry" />
        </mxCell>
        <mxCell id="r62l4i-lVo5JHtnVVHP4-94" value="" style="ellipse;whiteSpace=wrap;html=1;aspect=fixed;" parent="1" vertex="1">
          <mxGeometry x="1676" y="-276" width="10" height="10" as="geometry" />
        </mxCell>
        <mxCell id="r62l4i-lVo5JHtnVVHP4-95" value="" style="ellipse;whiteSpace=wrap;html=1;aspect=fixed;" parent="1" vertex="1">
          <mxGeometry x="1665" y="-232" width="10" height="10" as="geometry" />
        </mxCell>
        <mxCell id="r62l4i-lVo5JHtnVVHP4-96" value="" style="ellipse;whiteSpace=wrap;html=1;aspect=fixed;" parent="1" vertex="1">
          <mxGeometry x="1702" y="-256" width="10" height="10" as="geometry" />
        </mxCell>
        <mxCell id="r62l4i-lVo5JHtnVVHP4-97" value="" style="ellipse;whiteSpace=wrap;html=1;aspect=fixed;" parent="1" vertex="1">
          <mxGeometry x="1740" y="-267" width="10" height="10" as="geometry" />
        </mxCell>
        <mxCell id="r62l4i-lVo5JHtnVVHP4-98" value="" style="ellipse;whiteSpace=wrap;html=1;aspect=fixed;" parent="1" vertex="1">
          <mxGeometry x="1750" y="-237" width="10" height="10" as="geometry" />
        </mxCell>
        <mxCell id="r62l4i-lVo5JHtnVVHP4-99" value="" style="ellipse;whiteSpace=wrap;html=1;aspect=fixed;" parent="1" vertex="1">
          <mxGeometry x="1769" y="-255" width="10" height="10" as="geometry" />
        </mxCell>
        <mxCell id="r62l4i-lVo5JHtnVVHP4-100" value="" style="ellipse;whiteSpace=wrap;html=1;aspect=fixed;" parent="1" vertex="1">
          <mxGeometry x="1730" y="-294" width="10" height="10" as="geometry" />
        </mxCell>
        <mxCell id="r62l4i-lVo5JHtnVVHP4-101" value="" style="verticalLabelPosition=bottom;verticalAlign=top;html=1;shape=mxgraph.basic.acute_triangle;dx=0.5;" parent="1" vertex="1">
          <mxGeometry x="1684" y="-247" width="10" height="8" as="geometry" />
        </mxCell>
        <mxCell id="r62l4i-lVo5JHtnVVHP4-102" value="" style="verticalLabelPosition=bottom;verticalAlign=top;html=1;shape=mxgraph.basic.acute_triangle;dx=0.5;" parent="1" vertex="1">
          <mxGeometry x="1715" y="-219" width="10" height="8" as="geometry" />
        </mxCell>
        <mxCell id="r62l4i-lVo5JHtnVVHP4-103" value="" style="verticalLabelPosition=bottom;verticalAlign=top;html=1;shape=mxgraph.basic.acute_triangle;dx=0.5;" parent="1" vertex="1">
          <mxGeometry x="1681" y="-302" width="10" height="8" as="geometry" />
        </mxCell>
        <mxCell id="r62l4i-lVo5JHtnVVHP4-104" value="" style="verticalLabelPosition=bottom;verticalAlign=top;html=1;shape=mxgraph.basic.acute_triangle;dx=0.5;" parent="1" vertex="1">
          <mxGeometry x="1706" y="-278" width="10" height="8" as="geometry" />
        </mxCell>
        <mxCell id="r62l4i-lVo5JHtnVVHP4-105" value="" style="verticalLabelPosition=bottom;verticalAlign=top;html=1;shape=mxgraph.basic.acute_triangle;dx=0.5;" parent="1" vertex="1">
          <mxGeometry x="1732" y="-249" width="10" height="8" as="geometry" />
        </mxCell>
        <mxCell id="r62l4i-lVo5JHtnVVHP4-106" value="" style="verticalLabelPosition=bottom;verticalAlign=top;html=1;shape=mxgraph.basic.acute_triangle;dx=0.5;" parent="1" vertex="1">
          <mxGeometry x="1629" y="-269" width="10" height="8" as="geometry" />
        </mxCell>
        <mxCell id="r62l4i-lVo5JHtnVVHP4-107" value="" style="verticalLabelPosition=bottom;verticalAlign=top;html=1;shape=mxgraph.basic.acute_triangle;dx=0.5;" parent="1" vertex="1">
          <mxGeometry x="1747" y="-291" width="10" height="8" as="geometry" />
        </mxCell>
        <mxCell id="r62l4i-lVo5JHtnVVHP4-108" value="" style="verticalLabelPosition=bottom;verticalAlign=top;html=1;shape=mxgraph.basic.star;shadow=0;" parent="1" vertex="1">
          <mxGeometry x="1717" y="-268" width="10" height="10" as="geometry" />
        </mxCell>
        <mxCell id="r62l4i-lVo5JHtnVVHP4-109" value="" style="verticalLabelPosition=bottom;verticalAlign=top;html=1;shape=mxgraph.basic.star;shadow=0;" parent="1" vertex="1">
          <mxGeometry x="1672" y="-258" width="10" height="10" as="geometry" />
        </mxCell>
        <mxCell id="r62l4i-lVo5JHtnVVHP4-110" value="" style="verticalLabelPosition=bottom;verticalAlign=top;html=1;shape=mxgraph.basic.star;shadow=0;" parent="1" vertex="1">
          <mxGeometry x="1696" y="-234" width="10" height="10" as="geometry" />
        </mxCell>
        <mxCell id="r62l4i-lVo5JHtnVVHP4-111" value="" style="verticalLabelPosition=bottom;verticalAlign=top;html=1;shape=mxgraph.basic.star;shadow=0;" parent="1" vertex="1">
          <mxGeometry x="1752" y="-253" width="10" height="10" as="geometry" />
        </mxCell>
        <mxCell id="r62l4i-lVo5JHtnVVHP4-112" value="" style="verticalLabelPosition=bottom;verticalAlign=top;html=1;shape=mxgraph.basic.star;shadow=0;" parent="1" vertex="1">
          <mxGeometry x="1736" y="-220" width="10" height="10" as="geometry" />
        </mxCell>
        <mxCell id="r62l4i-lVo5JHtnVVHP4-113" value="" style="verticalLabelPosition=bottom;verticalAlign=top;html=1;shape=mxgraph.basic.star;shadow=0;" parent="1" vertex="1">
          <mxGeometry x="1667" y="-292" width="10" height="10" as="geometry" />
        </mxCell>
        <mxCell id="r62l4i-lVo5JHtnVVHP4-114" value="" style="verticalLabelPosition=bottom;verticalAlign=top;html=1;shape=mxgraph.basic.star;shadow=0;" parent="1" vertex="1">
          <mxGeometry x="1707" y="-297" width="10" height="10" as="geometry" />
        </mxCell>
        <mxCell id="r62l4i-lVo5JHtnVVHP4-115" value="" style="ellipse;whiteSpace=wrap;html=1;" parent="1" vertex="1">
          <mxGeometry x="1363" y="-3" width="336" height="140" as="geometry" />
        </mxCell>
        <mxCell id="r62l4i-lVo5JHtnVVHP4-116" value="" style="ellipse;whiteSpace=wrap;html=1;fillColor=none;" parent="1" vertex="1">
          <mxGeometry x="1469" y="-4" width="336" height="140" as="geometry" />
        </mxCell>
        <mxCell id="r62l4i-lVo5JHtnVVHP4-117" value="" style="ellipse;whiteSpace=wrap;html=1;aspect=fixed;shadow=0;dashed=1;" parent="1" vertex="1">
          <mxGeometry x="1488" y="25" width="84" height="84" as="geometry" />
        </mxCell>
        <mxCell id="r62l4i-lVo5JHtnVVHP4-118" value="" style="verticalLabelPosition=bottom;verticalAlign=top;html=1;shape=mxgraph.basic.acute_triangle;dx=0.5;" parent="1" vertex="1">
          <mxGeometry x="1511" y="40" width="10" height="8" as="geometry" />
        </mxCell>
        <mxCell id="r62l4i-lVo5JHtnVVHP4-119" value="" style="verticalLabelPosition=bottom;verticalAlign=top;html=1;shape=mxgraph.basic.acute_triangle;dx=0.5;" parent="1" vertex="1">
          <mxGeometry x="1504" y="53" width="10" height="8" as="geometry" />
        </mxCell>
        <mxCell id="r62l4i-lVo5JHtnVVHP4-120" value="" style="verticalLabelPosition=bottom;verticalAlign=top;html=1;shape=mxgraph.basic.acute_triangle;dx=0.5;" parent="1" vertex="1">
          <mxGeometry x="1527" y="43" width="10" height="8" as="geometry" />
        </mxCell>
        <mxCell id="r62l4i-lVo5JHtnVVHP4-121" value="" style="verticalLabelPosition=bottom;verticalAlign=top;html=1;shape=mxgraph.basic.acute_triangle;dx=0.5;" parent="1" vertex="1">
          <mxGeometry x="1518" y="56" width="10" height="8" as="geometry" />
        </mxCell>
        <mxCell id="r62l4i-lVo5JHtnVVHP4-122" value="" style="verticalLabelPosition=bottom;verticalAlign=top;html=1;shape=mxgraph.basic.acute_triangle;dx=0.5;" parent="1" vertex="1">
          <mxGeometry x="1531" y="57" width="10" height="8" as="geometry" />
        </mxCell>
        <mxCell id="r62l4i-lVo5JHtnVVHP4-123" value="" style="verticalLabelPosition=bottom;verticalAlign=top;html=1;shape=mxgraph.basic.acute_triangle;dx=0.5;" parent="1" vertex="1">
          <mxGeometry x="1510" y="70" width="10" height="8" as="geometry" />
        </mxCell>
        <mxCell id="r62l4i-lVo5JHtnVVHP4-124" value="" style="verticalLabelPosition=bottom;verticalAlign=top;html=1;shape=mxgraph.basic.acute_triangle;dx=0.5;" parent="1" vertex="1">
          <mxGeometry x="1525" y="70" width="10" height="8" as="geometry" />
        </mxCell>
        <mxCell id="r62l4i-lVo5JHtnVVHP4-125" value="" style="verticalLabelPosition=bottom;verticalAlign=top;html=1;shape=mxgraph.basic.acute_triangle;dx=0.5;" parent="1" vertex="1">
          <mxGeometry x="1500" y="65" width="10" height="8" as="geometry" />
        </mxCell>
        <mxCell id="r62l4i-lVo5JHtnVVHP4-126" value="" style="ellipse;whiteSpace=wrap;html=1;aspect=fixed;shadow=0;dashed=1;" parent="1" vertex="1">
          <mxGeometry x="1596" y="28" width="82" height="82" as="geometry" />
        </mxCell>
        <mxCell id="r62l4i-lVo5JHtnVVHP4-127" value="" style="ellipse;whiteSpace=wrap;html=1;aspect=fixed;" parent="1" vertex="1">
          <mxGeometry x="1614" y="45" width="10" height="10" as="geometry" />
        </mxCell>
        <mxCell id="r62l4i-lVo5JHtnVVHP4-128" value="" style="ellipse;whiteSpace=wrap;html=1;aspect=fixed;" parent="1" vertex="1">
          <mxGeometry x="1624" y="57" width="10" height="10" as="geometry" />
        </mxCell>
        <mxCell id="r62l4i-lVo5JHtnVVHP4-129" value="" style="ellipse;whiteSpace=wrap;html=1;aspect=fixed;" parent="1" vertex="1">
          <mxGeometry x="1607" y="64" width="10" height="10" as="geometry" />
        </mxCell>
        <mxCell id="r62l4i-lVo5JHtnVVHP4-130" value="" style="ellipse;whiteSpace=wrap;html=1;aspect=fixed;" parent="1" vertex="1">
          <mxGeometry x="1618" y="72" width="10" height="10" as="geometry" />
        </mxCell>
        <mxCell id="r62l4i-lVo5JHtnVVHP4-131" value="" style="ellipse;whiteSpace=wrap;html=1;aspect=fixed;" parent="1" vertex="1">
          <mxGeometry x="1633" y="67" width="10" height="10" as="geometry" />
        </mxCell>
        <mxCell id="r62l4i-lVo5JHtnVVHP4-132" value="" style="ellipse;whiteSpace=wrap;html=1;aspect=fixed;" parent="1" vertex="1">
          <mxGeometry x="1630" y="46" width="10" height="10" as="geometry" />
        </mxCell>
        <mxCell id="r62l4i-lVo5JHtnVVHP4-133" value="" style="ellipse;whiteSpace=wrap;html=1;aspect=fixed;" parent="1" vertex="1">
          <mxGeometry x="1603" y="52" width="10" height="10" as="geometry" />
        </mxCell>
        <mxCell id="r62l4i-lVo5JHtnVVHP4-134" value="" style="ellipse;whiteSpace=wrap;html=1;aspect=fixed;" parent="1" vertex="1">
          <mxGeometry x="1641" y="56" width="10" height="10" as="geometry" />
        </mxCell>
        <mxCell id="r62l4i-lVo5JHtnVVHP4-135" value="" style="verticalLabelPosition=bottom;verticalAlign=top;html=1;shape=mxgraph.basic.acute_triangle;dx=0.5;" parent="1" vertex="1">
          <mxGeometry x="1542" y="50" width="10" height="8" as="geometry" />
        </mxCell>
        <mxCell id="r62l4i-lVo5JHtnVVHP4-136" value="" style="verticalLabelPosition=bottom;verticalAlign=top;html=1;shape=mxgraph.basic.acute_triangle;dx=0.5;" parent="1" vertex="1">
          <mxGeometry x="1540" y="68" width="10" height="8" as="geometry" />
        </mxCell>
        <mxCell id="r62l4i-lVo5JHtnVVHP4-137" value="" style="verticalLabelPosition=bottom;verticalAlign=top;html=1;shape=mxgraph.basic.acute_triangle;dx=0.5;" parent="1" vertex="1">
          <mxGeometry x="1534" y="81" width="10" height="8" as="geometry" />
        </mxCell>
        <mxCell id="r62l4i-lVo5JHtnVVHP4-138" value="" style="verticalLabelPosition=bottom;verticalAlign=top;html=1;shape=mxgraph.basic.acute_triangle;dx=0.5;" parent="1" vertex="1">
          <mxGeometry x="1517" y="83" width="10" height="8" as="geometry" />
        </mxCell>
        <mxCell id="r62l4i-lVo5JHtnVVHP4-139" value="" style="verticalLabelPosition=bottom;verticalAlign=top;html=1;shape=mxgraph.basic.acute_triangle;dx=0.5;" parent="1" vertex="1">
          <mxGeometry x="1499" y="81" width="10" height="8" as="geometry" />
        </mxCell>
        <mxCell id="r62l4i-lVo5JHtnVVHP4-140" value="" style="verticalLabelPosition=bottom;verticalAlign=top;html=1;shape=mxgraph.basic.acute_triangle;dx=0.5;" parent="1" vertex="1">
          <mxGeometry x="1549" y="78" width="10" height="8" as="geometry" />
        </mxCell>
        <mxCell id="r62l4i-lVo5JHtnVVHP4-141" value="" style="verticalLabelPosition=bottom;verticalAlign=top;html=1;shape=mxgraph.basic.acute_triangle;dx=0.5;" parent="1" vertex="1">
          <mxGeometry x="1555" y="61" width="10" height="8" as="geometry" />
        </mxCell>
        <mxCell id="r62l4i-lVo5JHtnVVHP4-142" value="" style="verticalLabelPosition=bottom;verticalAlign=top;html=1;shape=mxgraph.basic.acute_triangle;dx=0.5;" parent="1" vertex="1">
          <mxGeometry x="1552" y="44" width="10" height="8" as="geometry" />
        </mxCell>
        <mxCell id="r62l4i-lVo5JHtnVVHP4-143" value="" style="ellipse;whiteSpace=wrap;html=1;aspect=fixed;" parent="1" vertex="1">
          <mxGeometry x="1606" y="81" width="10" height="10" as="geometry" />
        </mxCell>
        <mxCell id="r62l4i-lVo5JHtnVVHP4-144" value="" style="ellipse;whiteSpace=wrap;html=1;aspect=fixed;" parent="1" vertex="1">
          <mxGeometry x="1623" y="84" width="10" height="10" as="geometry" />
        </mxCell>
        <mxCell id="r62l4i-lVo5JHtnVVHP4-145" value="" style="ellipse;whiteSpace=wrap;html=1;aspect=fixed;" parent="1" vertex="1">
          <mxGeometry x="1639" y="82" width="10" height="10" as="geometry" />
        </mxCell>
        <mxCell id="r62l4i-lVo5JHtnVVHP4-146" value="" style="ellipse;whiteSpace=wrap;html=1;aspect=fixed;" parent="1" vertex="1">
          <mxGeometry x="1647" y="71" width="10" height="10" as="geometry" />
        </mxCell>
        <mxCell id="r62l4i-lVo5JHtnVVHP4-147" value="" style="ellipse;whiteSpace=wrap;html=1;aspect=fixed;" parent="1" vertex="1">
          <mxGeometry x="1654" y="58" width="10" height="10" as="geometry" />
        </mxCell>
        <mxCell id="r62l4i-lVo5JHtnVVHP4-148" value="" style="ellipse;whiteSpace=wrap;html=1;aspect=fixed;" parent="1" vertex="1">
          <mxGeometry x="1649" y="45" width="10" height="10" as="geometry" />
        </mxCell>
        <mxCell id="r62l4i-lVo5JHtnVVHP4-149" value="" style="ellipse;whiteSpace=wrap;html=1;aspect=fixed;" parent="1" vertex="1">
          <mxGeometry x="1654" y="82" width="10" height="10" as="geometry" />
        </mxCell>
        <mxCell id="r62l4i-lVo5JHtnVVHP4-150" value="" style="ellipse;whiteSpace=wrap;html=1;aspect=fixed;" parent="1" vertex="1">
          <mxGeometry x="1661" y="71" width="10" height="10" as="geometry" />
        </mxCell>
        <mxCell id="r62l4i-lVo5JHtnVVHP4-151" value="" style="ellipse;whiteSpace=wrap;html=1;aspect=fixed;shadow=0;dashed=1;" parent="1" vertex="1">
          <mxGeometry x="1389" y="34" width="64" height="64" as="geometry" />
        </mxCell>
        <mxCell id="r62l4i-lVo5JHtnVVHP4-152" value="" style="verticalLabelPosition=bottom;verticalAlign=top;html=1;shape=mxgraph.basic.rect;fillColor2=none;strokeWidth=1;size=20;indent=5;" parent="1" vertex="1">
          <mxGeometry x="1399" y="47" width="10" height="10" as="geometry" />
        </mxCell>
        <mxCell id="r62l4i-lVo5JHtnVVHP4-153" value="" style="verticalLabelPosition=bottom;verticalAlign=top;html=1;shape=mxgraph.basic.rect;fillColor2=none;strokeWidth=1;size=20;indent=5;" parent="1" vertex="1">
          <mxGeometry x="1405" y="61" width="10" height="10" as="geometry" />
        </mxCell>
        <mxCell id="r62l4i-lVo5JHtnVVHP4-154" value="" style="verticalLabelPosition=bottom;verticalAlign=top;html=1;shape=mxgraph.basic.rect;fillColor2=none;strokeWidth=1;size=20;indent=5;" parent="1" vertex="1">
          <mxGeometry x="1419" y="65" width="10" height="10" as="geometry" />
        </mxCell>
        <mxCell id="r62l4i-lVo5JHtnVVHP4-155" value="" style="verticalLabelPosition=bottom;verticalAlign=top;html=1;shape=mxgraph.basic.rect;fillColor2=none;strokeWidth=1;size=20;indent=5;" parent="1" vertex="1">
          <mxGeometry x="1416" y="48" width="10" height="10" as="geometry" />
        </mxCell>
        <mxCell id="r62l4i-lVo5JHtnVVHP4-156" value="" style="verticalLabelPosition=bottom;verticalAlign=top;html=1;shape=mxgraph.basic.rect;fillColor2=none;strokeWidth=1;size=20;indent=5;" parent="1" vertex="1">
          <mxGeometry x="1433" y="53" width="10" height="10" as="geometry" />
        </mxCell>
        <mxCell id="r62l4i-lVo5JHtnVVHP4-157" value="" style="verticalLabelPosition=bottom;verticalAlign=top;html=1;shape=mxgraph.basic.rect;fillColor2=none;strokeWidth=1;size=20;indent=5;" parent="1" vertex="1">
          <mxGeometry x="1405" y="79" width="10" height="10" as="geometry" />
        </mxCell>
        <mxCell id="r62l4i-lVo5JHtnVVHP4-158" value="" style="verticalLabelPosition=bottom;verticalAlign=top;html=1;shape=mxgraph.basic.rect;fillColor2=none;strokeWidth=1;size=20;indent=5;" parent="1" vertex="1">
          <mxGeometry x="1433" y="73" width="10" height="10" as="geometry" />
        </mxCell>
        <mxCell id="r62l4i-lVo5JHtnVVHP4-159" value="" style="verticalLabelPosition=bottom;verticalAlign=top;html=1;shape=mxgraph.basic.rect;fillColor2=none;strokeWidth=1;size=20;indent=5;" parent="1" vertex="1">
          <mxGeometry x="1420" y="83" width="10" height="10" as="geometry" />
        </mxCell>
        <mxCell id="r62l4i-lVo5JHtnVVHP4-160" value="" style="ellipse;whiteSpace=wrap;html=1;aspect=fixed;shadow=0;dashed=1;" parent="1" vertex="1">
          <mxGeometry x="1713" y="36" width="64" height="64" as="geometry" />
        </mxCell>
        <mxCell id="r62l4i-lVo5JHtnVVHP4-161" value="" style="verticalLabelPosition=bottom;verticalAlign=top;html=1;shape=mxgraph.basic.star;shadow=0;" parent="1" vertex="1">
          <mxGeometry x="1729" y="47" width="10" height="10" as="geometry" />
        </mxCell>
        <mxCell id="r62l4i-lVo5JHtnVVHP4-162" value="" style="verticalLabelPosition=bottom;verticalAlign=top;html=1;shape=mxgraph.basic.star;shadow=0;" parent="1" vertex="1">
          <mxGeometry x="1739" y="66" width="10" height="10" as="geometry" />
        </mxCell>
        <mxCell id="r62l4i-lVo5JHtnVVHP4-163" value="" style="verticalLabelPosition=bottom;verticalAlign=top;html=1;shape=mxgraph.basic.star;shadow=0;" parent="1" vertex="1">
          <mxGeometry x="1749" y="45" width="10" height="10" as="geometry" />
        </mxCell>
        <mxCell id="r62l4i-lVo5JHtnVVHP4-164" value="" style="verticalLabelPosition=bottom;verticalAlign=top;html=1;shape=mxgraph.basic.star;shadow=0;" parent="1" vertex="1">
          <mxGeometry x="1754" y="60" width="10" height="10" as="geometry" />
        </mxCell>
        <mxCell id="r62l4i-lVo5JHtnVVHP4-165" value="" style="verticalLabelPosition=bottom;verticalAlign=top;html=1;shape=mxgraph.basic.star;shadow=0;" parent="1" vertex="1">
          <mxGeometry x="1724" y="61" width="10" height="10" as="geometry" />
        </mxCell>
        <mxCell id="r62l4i-lVo5JHtnVVHP4-166" value="" style="verticalLabelPosition=bottom;verticalAlign=top;html=1;shape=mxgraph.basic.star;shadow=0;" parent="1" vertex="1">
          <mxGeometry x="1728" y="77" width="10" height="10" as="geometry" />
        </mxCell>
        <mxCell id="r62l4i-lVo5JHtnVVHP4-167" value="" style="verticalLabelPosition=bottom;verticalAlign=top;html=1;shape=mxgraph.basic.star;shadow=0;" parent="1" vertex="1">
          <mxGeometry x="1751" y="77" width="10" height="10" as="geometry" />
        </mxCell>
        <mxCell id="r62l4i-lVo5JHtnVVHP4-168" value="" style="verticalLabelPosition=bottom;verticalAlign=top;html=1;shape=mxgraph.basic.star;shadow=0;" parent="1" vertex="1">
          <mxGeometry x="1740" y="53" width="10" height="10" as="geometry" />
        </mxCell>
        <mxCell id="r62l4i-lVo5JHtnVVHP4-169" value="域内类压缩" style="text;html=1;strokeColor=none;fillColor=none;align=center;verticalAlign=middle;whiteSpace=wrap;rounded=0;shadow=0;" parent="1" vertex="1">
          <mxGeometry x="1235" y="-118" width="90" height="39" as="geometry" />
        </mxCell>
        <mxCell id="r62l4i-lVo5JHtnVVHP4-170" value="域间类对齐" style="text;html=1;strokeColor=none;fillColor=none;align=center;verticalAlign=middle;whiteSpace=wrap;rounded=0;shadow=0;" parent="1" vertex="1">
          <mxGeometry x="1235" y="51.5" width="90" height="39" as="geometry" />
        </mxCell>
        <mxCell id="r62l4i-lVo5JHtnVVHP4-171" value="" style="verticalLabelPosition=bottom;verticalAlign=top;html=1;shape=mxgraph.basic.acute_triangle;dx=0.5;" parent="1" vertex="1">
          <mxGeometry x="1383" y="176" width="10" height="8" as="geometry" />
        </mxCell>
        <mxCell id="r62l4i-lVo5JHtnVVHP4-172" value="" style="ellipse;whiteSpace=wrap;html=1;aspect=fixed;" parent="1" vertex="1">
          <mxGeometry x="1401" y="175" width="10" height="10" as="geometry" />
        </mxCell>
        <mxCell id="r62l4i-lVo5JHtnVVHP4-173" value="：相似类" style="text;html=1;strokeColor=none;fillColor=none;align=center;verticalAlign=middle;whiteSpace=wrap;rounded=0;shadow=0;" parent="1" vertex="1">
          <mxGeometry x="1411" y="165" width="60" height="30" as="geometry" />
        </mxCell>
        <mxCell id="r62l4i-lVo5JHtnVVHP4-174" value="" style="verticalLabelPosition=bottom;verticalAlign=top;html=1;shape=mxgraph.basic.rect;fillColor2=none;strokeWidth=1;size=20;indent=5;" parent="1" vertex="1">
          <mxGeometry x="1485" y="175" width="10" height="10" as="geometry" />
        </mxCell>
        <mxCell id="r62l4i-lVo5JHtnVVHP4-175" value="" style="verticalLabelPosition=bottom;verticalAlign=top;html=1;shape=mxgraph.basic.star;shadow=0;" parent="1" vertex="1">
          <mxGeometry x="1503" y="175" width="10" height="10" as="geometry" />
        </mxCell>
        <mxCell id="r62l4i-lVo5JHtnVVHP4-176" value="：非相似类" style="text;html=1;strokeColor=none;fillColor=none;align=center;verticalAlign=middle;whiteSpace=wrap;rounded=0;shadow=0;" parent="1" vertex="1">
          <mxGeometry x="1512" y="165" width="73" height="30" as="geometry" />
        </mxCell>
        <mxCell id="r62l4i-lVo5JHtnVVHP4-177" style="edgeStyle=none;rounded=0;orthogonalLoop=1;jettySize=auto;html=1;exitX=1;exitY=0.5;exitDx=0;exitDy=0;entryX=0;entryY=0.5;entryDx=0;entryDy=0;fontSize=12;strokeColor=#3333FF;" parent="1" source="r62l4i-lVo5JHtnVVHP4-187" target="r62l4i-lVo5JHtnVVHP4-197" edge="1">
          <mxGeometry relative="1" as="geometry" />
        </mxCell>
        <mxCell id="r62l4i-lVo5JHtnVVHP4-178" style="edgeStyle=none;rounded=0;orthogonalLoop=1;jettySize=auto;html=1;exitX=1;exitY=0.5;exitDx=0;exitDy=0;entryX=0;entryY=0.5;entryDx=0;entryDy=0;strokeColor=#3333FF;fontSize=12;" parent="1" source="r62l4i-lVo5JHtnVVHP4-188" target="r62l4i-lVo5JHtnVVHP4-197" edge="1">
          <mxGeometry relative="1" as="geometry" />
        </mxCell>
        <mxCell id="r62l4i-lVo5JHtnVVHP4-179" style="edgeStyle=none;rounded=0;orthogonalLoop=1;jettySize=auto;html=1;exitX=1;exitY=0.5;exitDx=0;exitDy=0;entryX=0;entryY=0.5;entryDx=0;entryDy=0;strokeColor=#3333FF;fontSize=12;" parent="1" source="r62l4i-lVo5JHtnVVHP4-189" target="r62l4i-lVo5JHtnVVHP4-197" edge="1">
          <mxGeometry relative="1" as="geometry" />
        </mxCell>
        <mxCell id="r62l4i-lVo5JHtnVVHP4-180" style="edgeStyle=none;rounded=0;orthogonalLoop=1;jettySize=auto;html=1;exitX=1;exitY=0.5;exitDx=0;exitDy=0;entryX=0;entryY=0.5;entryDx=0;entryDy=0;strokeColor=#3333FF;fontSize=12;" parent="1" source="r62l4i-lVo5JHtnVVHP4-190" target="r62l4i-lVo5JHtnVVHP4-198" edge="1">
          <mxGeometry relative="1" as="geometry" />
        </mxCell>
        <mxCell id="r62l4i-lVo5JHtnVVHP4-181" style="edgeStyle=none;rounded=0;orthogonalLoop=1;jettySize=auto;html=1;exitX=1;exitY=0.5;exitDx=0;exitDy=0;entryX=0;entryY=0.5;entryDx=0;entryDy=0;strokeColor=#3333FF;fontSize=12;" parent="1" source="r62l4i-lVo5JHtnVVHP4-191" target="r62l4i-lVo5JHtnVVHP4-198" edge="1">
          <mxGeometry relative="1" as="geometry" />
        </mxCell>
        <mxCell id="r62l4i-lVo5JHtnVVHP4-182" style="edgeStyle=none;rounded=0;orthogonalLoop=1;jettySize=auto;html=1;exitX=1;exitY=0.5;exitDx=0;exitDy=0;entryX=0;entryY=0.5;entryDx=0;entryDy=0;strokeColor=#3333FF;fontSize=12;" parent="1" source="r62l4i-lVo5JHtnVVHP4-192" target="r62l4i-lVo5JHtnVVHP4-199" edge="1">
          <mxGeometry relative="1" as="geometry" />
        </mxCell>
        <mxCell id="r62l4i-lVo5JHtnVVHP4-183" style="edgeStyle=none;rounded=0;orthogonalLoop=1;jettySize=auto;html=1;exitX=1;exitY=0.5;exitDx=0;exitDy=0;entryX=0;entryY=0.5;entryDx=0;entryDy=0;strokeColor=#3333FF;fontSize=12;" parent="1" source="r62l4i-lVo5JHtnVVHP4-193" target="r62l4i-lVo5JHtnVVHP4-200" edge="1">
          <mxGeometry relative="1" as="geometry" />
        </mxCell>
        <mxCell id="r62l4i-lVo5JHtnVVHP4-184" value="" style="group" parent="1" vertex="1" connectable="0">
          <mxGeometry x="1180" y="190" width="254" height="522" as="geometry" />
        </mxCell>
        <mxCell id="r62l4i-lVo5JHtnVVHP4-185" value="&lt;div style=&quot;&quot;&gt;&lt;font style=&quot;font-size: 12px;&quot;&gt;SimpleLocker样本代码结构&lt;/font&gt;&lt;/div&gt;&lt;div style=&quot;&quot;&gt;&lt;font style=&quot;font-size: 12px;&quot;&gt;304efc1f0b5b8......c1218a7a4a22b091ffb30b&lt;/font&gt;&lt;/div&gt;&lt;div style=&quot;&quot;&gt;&lt;font style=&quot;font-size: 12px;&quot;&gt;|-smali&lt;/font&gt;&lt;/div&gt;&lt;div style=&quot;&quot;&gt;&lt;font style=&quot;font-size: 12px;&quot;&gt;| |-org&lt;/font&gt;&lt;/div&gt;&lt;div style=&quot;&quot;&gt;&lt;font style=&quot;font-size: 12px;&quot;&gt;|&lt;span style=&quot;&quot;&gt; &lt;/span&gt;|&lt;span style=&quot;&quot;&gt; &lt;/span&gt;|-simplelocker&lt;/font&gt;&lt;/div&gt;&lt;div style=&quot;&quot;&gt;&lt;font style=&quot;font-size: 12px;&quot;&gt;|&lt;span style=&quot;&quot;&gt; &lt;/span&gt;|&lt;span style=&quot;&quot;&gt; &lt;/span&gt;|&lt;span style=&quot;&quot;&gt; &lt;/span&gt;|-AesCrypy.smali&lt;/font&gt;&lt;/div&gt;&lt;div style=&quot;&quot;&gt;&lt;font style=&quot;font-size: 12px;&quot;&gt;|&lt;span style=&quot;&quot;&gt; &lt;/span&gt;|&lt;span style=&quot;&quot;&gt; &lt;/span&gt;|&lt;span style=&quot;&quot;&gt; &lt;/span&gt;|-FilesEncryptor.smali&lt;/font&gt;&lt;/div&gt;&lt;div style=&quot;&quot;&gt;&lt;font style=&quot;font-size: 12px;&quot;&gt;|&lt;span style=&quot;&quot;&gt; &lt;/span&gt;|&lt;span style=&quot;&quot;&gt; &lt;/span&gt;|&lt;span style=&quot;&quot;&gt; &lt;/span&gt;|-BuildConfig.smali&lt;/font&gt;&lt;/div&gt;&lt;div style=&quot;&quot;&gt;&lt;font style=&quot;font-size: 12px;&quot;&gt;|&lt;span style=&quot;&quot;&gt; &lt;/span&gt;|&lt;span style=&quot;&quot;&gt; &lt;/span&gt;|&lt;span style=&quot;&quot;&gt; &lt;/span&gt;|-CheckService.smali&lt;/font&gt;&lt;/div&gt;&lt;div style=&quot;&quot;&gt;&lt;font style=&quot;font-size: 12px;&quot;&gt;|&lt;span style=&quot;&quot;&gt; &lt;/span&gt;|&lt;span style=&quot;&quot;&gt; &lt;/span&gt;|&lt;span style=&quot;&quot;&gt; &lt;/span&gt;|-CheckService$1.smali&lt;/font&gt;&lt;/div&gt;&lt;div style=&quot;&quot;&gt;&lt;font style=&quot;font-size: 12px;&quot;&gt;|&lt;span style=&quot;&quot;&gt; &lt;/span&gt;|&lt;span style=&quot;&quot;&gt; &lt;/span&gt;|&lt;span style=&quot;&quot;&gt; &lt;/span&gt;|-CheckService$2.smali&lt;/font&gt;&lt;/div&gt;&lt;div style=&quot;&quot;&gt;&lt;font style=&quot;font-size: 12px;&quot;&gt;|&lt;span style=&quot;&quot;&gt; &lt;/span&gt;|&lt;span style=&quot;&quot;&gt; &lt;/span&gt;|&lt;span style=&quot;&quot;&gt; &lt;/span&gt;|-CheckService$3.smali&lt;/font&gt;&lt;/div&gt;&lt;div style=&quot;&quot;&gt;&lt;font style=&quot;font-size: 12px;&quot;&gt;|&lt;span style=&quot;&quot;&gt; &lt;/span&gt;|&lt;span style=&quot;&quot;&gt; &lt;/span&gt;|&lt;span style=&quot;&quot;&gt; &lt;/span&gt;|-Constants.smali&lt;/font&gt;&lt;/div&gt;&lt;div style=&quot;&quot;&gt;&lt;font style=&quot;font-size: 12px;&quot;&gt;|&lt;span style=&quot;&quot;&gt; &lt;/span&gt;|&lt;span style=&quot;&quot;&gt; &lt;/span&gt;|&lt;span style=&quot;&quot;&gt; &lt;/span&gt;|-DecryptService.smali&lt;/font&gt;&lt;/div&gt;&lt;div style=&quot;&quot;&gt;&lt;font style=&quot;font-size: 12px;&quot;&gt;|&lt;span style=&quot;&quot;&gt; &lt;/span&gt;|&lt;span style=&quot;&quot;&gt; &lt;/span&gt;|&lt;span style=&quot;&quot;&gt; &lt;/span&gt;|-DecryptService$1.smali&lt;/font&gt;&lt;/div&gt;&lt;div style=&quot;&quot;&gt;&lt;font style=&quot;font-size: 12px;&quot;&gt;|&lt;span style=&quot;&quot;&gt; &lt;/span&gt;|&lt;span style=&quot;&quot;&gt; &lt;/span&gt;|&lt;span style=&quot;&quot;&gt; &lt;/span&gt;|-DeviceAdminChecker.smali&lt;/font&gt;&lt;/div&gt;&lt;div style=&quot;&quot;&gt;&lt;font style=&quot;font-size: 12px;&quot;&gt;|&lt;span style=&quot;&quot;&gt; &lt;/span&gt;|&lt;span style=&quot;&quot;&gt; &lt;/span&gt;|&lt;span style=&quot;&quot;&gt; &lt;/span&gt;|-Main.smali&lt;/font&gt;&lt;/div&gt;&lt;div style=&quot;&quot;&gt;&lt;font style=&quot;font-size: 12px;&quot;&gt;|&lt;span style=&quot;&quot;&gt; &lt;/span&gt;|&lt;span style=&quot;&quot;&gt; &lt;/span&gt;|&lt;span style=&quot;&quot;&gt; &lt;/span&gt;|-Main$1.smali&lt;/font&gt;&lt;/div&gt;&lt;div style=&quot;&quot;&gt;&lt;font style=&quot;font-size: 12px;&quot;&gt;|&lt;span style=&quot;&quot;&gt; &lt;/span&gt;|&lt;span style=&quot;&quot;&gt; &lt;/span&gt;|&lt;span style=&quot;&quot;&gt; &lt;/span&gt;|-MainService.smali&lt;/font&gt;&lt;/div&gt;&lt;div style=&quot;&quot;&gt;&lt;font style=&quot;font-size: 12px;&quot;&gt;|&lt;span style=&quot;&quot;&gt; &lt;/span&gt;|&lt;span style=&quot;&quot;&gt; &lt;/span&gt;|&lt;span style=&quot;&quot;&gt; &lt;/span&gt;|-MainService$1.smali&lt;/font&gt;&lt;/div&gt;&lt;div style=&quot;&quot;&gt;&lt;font style=&quot;font-size: 12px;&quot;&gt;|&lt;span style=&quot;&quot;&gt; &lt;/span&gt;|&lt;span style=&quot;&quot;&gt; &lt;/span&gt;|&lt;span style=&quot;&quot;&gt; &lt;/span&gt;|-MainService$2.smali&lt;/font&gt;&lt;/div&gt;&lt;div style=&quot;&quot;&gt;&lt;font style=&quot;font-size: 12px;&quot;&gt;|&lt;span style=&quot;&quot;&gt; &lt;/span&gt;|&lt;span style=&quot;&quot;&gt; &lt;/span&gt;|&lt;span style=&quot;&quot;&gt; &lt;/span&gt;|-MainService$3.smali&lt;/font&gt;&lt;/div&gt;&lt;div style=&quot;&quot;&gt;&lt;font style=&quot;font-size: 12px;&quot;&gt;|&lt;span style=&quot;&quot;&gt; &lt;/span&gt;|&lt;span style=&quot;&quot;&gt; &lt;/span&gt;|&lt;span style=&quot;&quot;&gt; &lt;/span&gt;|-MessageReceiver.smali&lt;/font&gt;&lt;/div&gt;&lt;div style=&quot;&quot;&gt;&lt;font style=&quot;font-size: 12px;&quot;&gt;|&lt;span style=&quot;&quot;&gt; &lt;/span&gt;|&lt;span style=&quot;&quot;&gt; &lt;/span&gt;|&lt;span style=&quot;&quot;&gt; &lt;/span&gt;|-MyDeviceAdminReceiver.smali&lt;/font&gt;&lt;/div&gt;&lt;div style=&quot;&quot;&gt;&lt;font style=&quot;font-size: 12px;&quot;&gt;|&lt;span style=&quot;&quot;&gt; &lt;/span&gt;|&lt;span style=&quot;&quot;&gt; &lt;/span&gt;|&lt;span style=&quot;&quot;&gt; &lt;/span&gt;|-R.smali&lt;/font&gt;&lt;/div&gt;&lt;div style=&quot;&quot;&gt;&lt;font style=&quot;font-size: 12px;&quot;&gt;|&lt;span style=&quot;&quot;&gt; &lt;/span&gt;|&lt;span style=&quot;&quot;&gt; &lt;/span&gt;|&lt;span style=&quot;&quot;&gt; &lt;/span&gt;|-SDCardServiceStarter.smali&lt;/font&gt;&lt;/div&gt;&lt;div style=&quot;&quot;&gt;&lt;font style=&quot;font-size: 12px;&quot;&gt;|&lt;span style=&quot;&quot;&gt; &lt;/span&gt;|&lt;span style=&quot;&quot;&gt; &lt;/span&gt;|&lt;span style=&quot;&quot;&gt; &lt;/span&gt;|-ServiceStarter.smali&lt;/font&gt;&lt;/div&gt;&lt;div style=&quot;&quot;&gt;&lt;font style=&quot;font-size: 12px;&quot;&gt;|&lt;span style=&quot;&quot;&gt; &lt;/span&gt;|&lt;span style=&quot;&quot;&gt; &lt;/span&gt;|&lt;span style=&quot;&quot;&gt; &lt;/span&gt;|-utils&lt;/font&gt;&lt;/div&gt;&lt;div style=&quot;&quot;&gt;&lt;font style=&quot;font-size: 12px;&quot;&gt;|&lt;span style=&quot;&quot;&gt; &lt;/span&gt;|&lt;span style=&quot;&quot;&gt; &lt;/span&gt;|&lt;span style=&quot;&quot;&gt; &lt;/span&gt;|&lt;span style=&quot;&quot;&gt; &lt;/span&gt;|-HttpSender.smali&lt;/font&gt;&lt;/div&gt;&lt;div style=&quot;&quot;&gt;&lt;font style=&quot;font-size: 12px;&quot;&gt;|&lt;span style=&quot;&quot;&gt; &lt;/span&gt;|&lt;span style=&quot;&quot;&gt; &lt;/span&gt;|&lt;span style=&quot;&quot;&gt; &lt;/span&gt;|&lt;span style=&quot;&quot;&gt; &lt;/span&gt;|-HttpSender$1.smali&lt;/font&gt;&lt;/div&gt;&lt;div style=&quot;&quot;&gt;&lt;font style=&quot;font-size: 12px;&quot;&gt;|&lt;span style=&quot;&quot;&gt; &lt;/span&gt;|&lt;span style=&quot;&quot;&gt; &lt;/span&gt;|&lt;span style=&quot;&quot;&gt; &lt;/span&gt;|&lt;span style=&quot;&quot;&gt; &lt;/span&gt;|-HttpSender$RequestType.smali&lt;/font&gt;&lt;/div&gt;&lt;div style=&quot;&quot;&gt;&lt;font style=&quot;font-size: 12px;&quot;&gt;|&lt;span style=&quot;&quot;&gt; &lt;/span&gt;|&lt;span style=&quot;&quot;&gt; &lt;/span&gt;|&lt;span style=&quot;&quot;&gt; &lt;/span&gt;|&lt;span style=&quot;&quot;&gt; &lt;/span&gt;|-ObjectSerializer.smali&lt;/font&gt;&lt;/div&gt;&lt;div style=&quot;&quot;&gt;&lt;font style=&quot;font-size: 12px;&quot;&gt;|&lt;span style=&quot;&quot;&gt; &lt;/span&gt;|&lt;span style=&quot;&quot;&gt; &lt;/span&gt;|&lt;span style=&quot;&quot;&gt; &lt;/span&gt;|&lt;span style=&quot;&quot;&gt; &lt;/span&gt;|-Parser.smali&lt;/font&gt;&lt;/div&gt;&lt;div style=&quot;&quot;&gt;&lt;font style=&quot;font-size: 12px;&quot;&gt;|&lt;span style=&quot;&quot;&gt; &lt;/span&gt;|&lt;span style=&quot;&quot;&gt; &lt;/span&gt;|&lt;span style=&quot;&quot;&gt; &lt;/span&gt;|&lt;span style=&quot;&quot;&gt; &lt;/span&gt;|-Sender.smali&lt;/font&gt;&lt;/div&gt;&lt;div style=&quot;&quot;&gt;&lt;font style=&quot;font-size: 12px;&quot;&gt;|&lt;span style=&quot;&quot;&gt; &lt;/span&gt;|&lt;span style=&quot;&quot;&gt; &lt;/span&gt;|&lt;span style=&quot;&quot;&gt; &lt;/span&gt;|&lt;span style=&quot;&quot;&gt; &lt;/span&gt;|-SmsProcessor.smali&lt;/font&gt;&lt;/div&gt;&lt;div style=&quot;&quot;&gt;&lt;font style=&quot;font-size: 12px;&quot;&gt;| | | | |-Utils.smali&lt;/font&gt;&lt;/div&gt;" style="text;html=1;strokeColor=none;fillColor=none;align=left;verticalAlign=middle;whiteSpace=wrap;rounded=0;" parent="r62l4i-lVo5JHtnVVHP4-184" vertex="1">
          <mxGeometry width="254" height="520" as="geometry" />
        </mxCell>
        <mxCell id="r62l4i-lVo5JHtnVVHP4-186" value="" style="rounded=1;whiteSpace=wrap;html=1;strokeColor=#FF0000;fontSize=12;fillColor=none;strokeWidth=2;" parent="r62l4i-lVo5JHtnVVHP4-184" vertex="1">
          <mxGeometry x="20" y="73" width="120" height="30" as="geometry" />
        </mxCell>
        <mxCell id="r62l4i-lVo5JHtnVVHP4-187" value="" style="rounded=1;whiteSpace=wrap;html=1;strokeColor=#0000FF;strokeWidth=2;fontSize=12;fillColor=none;" parent="r62l4i-lVo5JHtnVVHP4-184" vertex="1">
          <mxGeometry x="22" y="116" width="127" height="30" as="geometry" />
        </mxCell>
        <mxCell id="r62l4i-lVo5JHtnVVHP4-188" value="" style="rounded=1;whiteSpace=wrap;html=1;strokeColor=#0000FF;strokeWidth=2;fontSize=12;fillColor=none;" parent="r62l4i-lVo5JHtnVVHP4-184" vertex="1">
          <mxGeometry x="21" y="173" width="100" height="18" as="geometry" />
        </mxCell>
        <mxCell id="r62l4i-lVo5JHtnVVHP4-189" value="" style="rounded=1;whiteSpace=wrap;html=1;strokeColor=#0000FF;strokeWidth=2;fontSize=12;fillColor=none;" parent="r62l4i-lVo5JHtnVVHP4-184" vertex="1">
          <mxGeometry x="20.5" y="217" width="162.5" height="14" as="geometry" />
        </mxCell>
        <mxCell id="r62l4i-lVo5JHtnVVHP4-190" value="" style="rounded=1;whiteSpace=wrap;html=1;strokeColor=#0000FF;strokeWidth=2;fontSize=12;fillColor=none;" parent="r62l4i-lVo5JHtnVVHP4-184" vertex="1">
          <mxGeometry x="21" y="260" width="121" height="59" as="geometry" />
        </mxCell>
        <mxCell id="r62l4i-lVo5JHtnVVHP4-191" value="" style="rounded=1;whiteSpace=wrap;html=1;strokeColor=#0000FF;strokeWidth=2;fontSize=12;fillColor=none;" parent="r62l4i-lVo5JHtnVVHP4-184" vertex="1">
          <mxGeometry x="21.5" y="232" width="66.5" height="15" as="geometry" />
        </mxCell>
        <mxCell id="r62l4i-lVo5JHtnVVHP4-192" value="" style="rounded=1;whiteSpace=wrap;html=1;strokeColor=#0000FF;strokeWidth=2;fontSize=12;fillColor=none;" parent="r62l4i-lVo5JHtnVVHP4-184" vertex="1">
          <mxGeometry x="26.5" y="402" width="181" height="44" as="geometry" />
        </mxCell>
        <mxCell id="r62l4i-lVo5JHtnVVHP4-193" value="" style="rounded=1;whiteSpace=wrap;html=1;strokeColor=#0000FF;strokeWidth=2;fontSize=12;fillColor=none;" parent="r62l4i-lVo5JHtnVVHP4-184" vertex="1">
          <mxGeometry x="25" y="449" width="136" height="73" as="geometry" />
        </mxCell>
        <mxCell id="r62l4i-lVo5JHtnVVHP4-194" value="" style="group" parent="1" vertex="1" connectable="0">
          <mxGeometry x="1454" y="190" width="246" height="580" as="geometry" />
        </mxCell>
        <mxCell id="r62l4i-lVo5JHtnVVHP4-195" value="&lt;div style=&quot;&quot;&gt;&lt;font style=&quot;font-size: 12px;&quot;&gt;SlemBunk样本代码结构&lt;/font&gt;&lt;/div&gt;&lt;div style=&quot;&quot;&gt;&lt;font style=&quot;font-size: 12px;&quot;&gt;f3341fc8d7248......8644a2c6ca9c4d11c92b96&lt;/font&gt;&lt;/div&gt;&lt;div style=&quot;&quot;&gt;&lt;font style=&quot;font-size: 12px;&quot;&gt;|-smali&lt;/font&gt;&lt;/div&gt;&lt;div style=&quot;&quot;&gt;&lt;font style=&quot;font-size: 12px;&quot;&gt;| |-com&lt;/font&gt;&lt;/div&gt;&lt;div style=&quot;&quot;&gt;&lt;font style=&quot;font-size: 12px;&quot;&gt;|&lt;span style=&quot;&quot;&gt; &lt;/span&gt;|&lt;span style=&quot;&quot;&gt; &lt;/span&gt;|-slempo&lt;/font&gt;&lt;/div&gt;&lt;div style=&quot;&quot;&gt;&lt;font style=&quot;font-size: 12px;&quot;&gt;|&lt;span style=&quot;&quot;&gt; &lt;/span&gt;|&lt;span style=&quot;&quot;&gt; &lt;/span&gt;|&lt;span style=&quot;&quot;&gt; &lt;/span&gt;|-service&lt;/font&gt;&lt;/div&gt;&lt;div style=&quot;&quot;&gt;&lt;font style=&quot;font-size: 12px;&quot;&gt;|&lt;span style=&quot;&quot;&gt; &lt;/span&gt;|&lt;span style=&quot;&quot;&gt; &lt;/span&gt;|&lt;span style=&quot;&quot;&gt; &lt;/span&gt;|&lt;span style=&quot;&quot;&gt; &lt;/span&gt;|-activities&lt;/font&gt;&lt;/div&gt;&lt;div style=&quot;&quot;&gt;&lt;font style=&quot;font-size: 12px;&quot;&gt;|&lt;span style=&quot;&quot;&gt; &lt;/span&gt;|&lt;span style=&quot;&quot;&gt; &lt;/span&gt;|&lt;span style=&quot;&quot;&gt; &lt;/span&gt;|&lt;span style=&quot;&quot;&gt; &lt;/span&gt;|-billing&lt;/font&gt;&lt;/div&gt;&lt;div style=&quot;&quot;&gt;&lt;font style=&quot;font-size: 12px;&quot;&gt;|&lt;span style=&quot;&quot;&gt; &lt;/span&gt;|&lt;span style=&quot;&quot;&gt; &lt;/span&gt;|&lt;span style=&quot;&quot;&gt; &lt;/span&gt;|&lt;span style=&quot;&quot;&gt; &lt;/span&gt;|&lt;span style=&quot;&quot;&gt; &lt;/span&gt;|-BuildConfig.smali&lt;/font&gt;&lt;/div&gt;&lt;div style=&quot;&quot;&gt;&lt;font style=&quot;font-size: 12px;&quot;&gt;|&lt;span style=&quot;&quot;&gt; &lt;/span&gt;|&lt;span style=&quot;&quot;&gt; &lt;/span&gt;|&lt;span style=&quot;&quot;&gt; &lt;/span&gt;|&lt;span style=&quot;&quot;&gt; &lt;/span&gt;|&lt;span style=&quot;&quot;&gt; &lt;/span&gt;|-CheckService.smali&lt;/font&gt;&lt;/div&gt;&lt;div style=&quot;&quot;&gt;&lt;font style=&quot;font-size: 12px;&quot;&gt;|&lt;span style=&quot;&quot;&gt; &lt;/span&gt;|&lt;span style=&quot;&quot;&gt; &lt;/span&gt;|&lt;span style=&quot;&quot;&gt; &lt;/span&gt;|&lt;span style=&quot;&quot;&gt; &lt;/span&gt;|&lt;span style=&quot;&quot;&gt; &lt;/span&gt;|-CheckService$1.smali&lt;/font&gt;&lt;/div&gt;&lt;div style=&quot;&quot;&gt;&lt;font style=&quot;font-size: 12px;&quot;&gt;|&lt;span style=&quot;&quot;&gt; &lt;/span&gt;|&lt;span style=&quot;&quot;&gt; &lt;/span&gt;|&lt;span style=&quot;&quot;&gt; &lt;/span&gt;|&lt;span style=&quot;&quot;&gt; &lt;/span&gt;|&lt;span style=&quot;&quot;&gt; &lt;/span&gt;|-Constants.smali&lt;/font&gt;&lt;/div&gt;&lt;div style=&quot;&quot;&gt;&lt;font style=&quot;font-size: 12px;&quot;&gt;|&lt;span style=&quot;&quot;&gt; &lt;/span&gt;|&lt;span style=&quot;&quot;&gt; &lt;/span&gt;|&lt;span style=&quot;&quot;&gt; &lt;/span&gt;|&lt;span style=&quot;&quot;&gt; &lt;/span&gt;|&lt;span style=&quot;&quot;&gt; &lt;/span&gt;|-DeviceAdminChecker.smali&lt;/font&gt;&lt;/div&gt;&lt;div style=&quot;&quot;&gt;&lt;font style=&quot;font-size: 12px;&quot;&gt;|&lt;span style=&quot;&quot;&gt; &lt;/span&gt;|&lt;span style=&quot;&quot;&gt; &lt;/span&gt;|&lt;span style=&quot;&quot;&gt; &lt;/span&gt;|&lt;span style=&quot;&quot;&gt; &lt;/span&gt;|&lt;span style=&quot;&quot;&gt; &lt;/span&gt;|-Main.smali&lt;/font&gt;&lt;/div&gt;&lt;div style=&quot;&quot;&gt;&lt;font style=&quot;font-size: 12px;&quot;&gt;|&lt;span style=&quot;&quot;&gt; &lt;/span&gt;|&lt;span style=&quot;&quot;&gt; &lt;/span&gt;|&lt;span style=&quot;&quot;&gt; &lt;/span&gt;|&lt;span style=&quot;&quot;&gt; &lt;/span&gt;|&lt;span style=&quot;&quot;&gt; &lt;/span&gt;|-MainService.smali&lt;/font&gt;&lt;/div&gt;&lt;div style=&quot;&quot;&gt;&lt;font style=&quot;font-size: 12px;&quot;&gt;|&lt;span style=&quot;&quot;&gt; &lt;/span&gt;|&lt;span style=&quot;&quot;&gt; &lt;/span&gt;|&lt;span style=&quot;&quot;&gt; &lt;/span&gt;|&lt;span style=&quot;&quot;&gt; &lt;/span&gt;|&lt;span style=&quot;&quot;&gt; &lt;/span&gt;|-MainService$1.smali&lt;/font&gt;&lt;/div&gt;&lt;div style=&quot;&quot;&gt;&lt;font style=&quot;font-size: 12px;&quot;&gt;|&lt;span style=&quot;&quot;&gt; &lt;/span&gt;|&lt;span style=&quot;&quot;&gt; &lt;/span&gt;|&lt;span style=&quot;&quot;&gt; &lt;/span&gt;|&lt;span style=&quot;&quot;&gt; &lt;/span&gt;|&lt;span style=&quot;&quot;&gt; &lt;/span&gt;|-MainService$2.smali&lt;/font&gt;&lt;/div&gt;&lt;div style=&quot;&quot;&gt;&lt;font style=&quot;font-size: 12px;&quot;&gt;|&lt;span style=&quot;&quot;&gt; &lt;/span&gt;|&lt;span style=&quot;&quot;&gt; &lt;/span&gt;|&lt;span style=&quot;&quot;&gt; &lt;/span&gt;|&lt;span style=&quot;&quot;&gt; &lt;/span&gt;|&lt;span style=&quot;&quot;&gt; &lt;/span&gt;|-MainService$3.smali&lt;/font&gt;&lt;/div&gt;&lt;div style=&quot;&quot;&gt;&lt;font style=&quot;font-size: 12px;&quot;&gt;|&lt;span style=&quot;&quot;&gt; &lt;/span&gt;|&lt;span style=&quot;&quot;&gt; &lt;/span&gt;|&lt;span style=&quot;&quot;&gt; &lt;/span&gt;|&lt;span style=&quot;&quot;&gt; &lt;/span&gt;|&lt;span style=&quot;&quot;&gt; &lt;/span&gt;|-MainService$4.smali&lt;/font&gt;&lt;/div&gt;&lt;div style=&quot;&quot;&gt;&lt;font style=&quot;font-size: 12px;&quot;&gt;|&lt;span style=&quot;&quot;&gt; &lt;/span&gt;|&lt;span style=&quot;&quot;&gt; &lt;/span&gt;|&lt;span style=&quot;&quot;&gt; &lt;/span&gt;|&lt;span style=&quot;&quot;&gt; &lt;/span&gt;|&lt;span style=&quot;&quot;&gt; &lt;/span&gt;|-MainService$5.smali&lt;/font&gt;&lt;/div&gt;&lt;div style=&quot;&quot;&gt;&lt;font style=&quot;font-size: 12px;&quot;&gt;|&lt;span style=&quot;&quot;&gt; &lt;/span&gt;|&lt;span style=&quot;&quot;&gt; &lt;/span&gt;|&lt;span style=&quot;&quot;&gt; &lt;/span&gt;|&lt;span style=&quot;&quot;&gt; &lt;/span&gt;|&lt;span style=&quot;&quot;&gt; &lt;/span&gt;|-MainService$6.smali&lt;/font&gt;&lt;/div&gt;&lt;div style=&quot;&quot;&gt;&lt;font style=&quot;font-size: 12px;&quot;&gt;|&lt;span style=&quot;&quot;&gt; &lt;/span&gt;|&lt;span style=&quot;&quot;&gt; &lt;/span&gt;|&lt;span style=&quot;&quot;&gt; &lt;/span&gt;|&lt;span style=&quot;&quot;&gt; &lt;/span&gt;|&lt;span style=&quot;&quot;&gt; &lt;/span&gt;|-MessageReceiver.smali&lt;/font&gt;&lt;/div&gt;&lt;div style=&quot;&quot;&gt;&lt;font style=&quot;font-size: 12px;&quot;&gt;|&lt;span style=&quot;&quot;&gt; &lt;/span&gt;|&lt;span style=&quot;&quot;&gt; &lt;/span&gt;|&lt;span style=&quot;&quot;&gt; &lt;/span&gt;|&lt;span style=&quot;&quot;&gt; &lt;/span&gt;|&lt;span style=&quot;&quot;&gt; &lt;/span&gt;|-MyDeviceAdminReceiver.smali&lt;/font&gt;&lt;/div&gt;&lt;div style=&quot;&quot;&gt;&lt;font style=&quot;font-size: 12px;&quot;&gt;|&lt;span style=&quot;&quot;&gt; &lt;/span&gt;|&lt;span style=&quot;&quot;&gt; &lt;/span&gt;|&lt;span style=&quot;&quot;&gt; &lt;/span&gt;|&lt;span style=&quot;&quot;&gt; &lt;/span&gt;|&lt;span style=&quot;&quot;&gt; &lt;/span&gt;|-R.smali&lt;/font&gt;&lt;/div&gt;&lt;div style=&quot;&quot;&gt;&lt;font style=&quot;font-size: 12px;&quot;&gt;|&lt;span style=&quot;&quot;&gt; &lt;/span&gt;|&lt;span style=&quot;&quot;&gt; &lt;/span&gt;|&lt;span style=&quot;&quot;&gt; &lt;/span&gt;|&lt;span style=&quot;&quot;&gt; &lt;/span&gt;|&lt;span style=&quot;&quot;&gt; &lt;/span&gt;|-SDCardServiceStarter.smali&lt;/font&gt;&lt;/div&gt;&lt;div style=&quot;&quot;&gt;&lt;font style=&quot;font-size: 12px;&quot;&gt;|&lt;span style=&quot;&quot;&gt; &lt;/span&gt;|&lt;span style=&quot;&quot;&gt; &lt;/span&gt;|&lt;span style=&quot;&quot;&gt; &lt;/span&gt;|&lt;span style=&quot;&quot;&gt; &lt;/span&gt;|&lt;span style=&quot;&quot;&gt; &lt;/span&gt;|-ServiceStarter.smali&lt;/font&gt;&lt;/div&gt;&lt;div style=&quot;&quot;&gt;&lt;font style=&quot;font-size: 12px;&quot;&gt;|&lt;span style=&quot;&quot;&gt; &lt;/span&gt;|&lt;span style=&quot;&quot;&gt; &lt;/span&gt;|&lt;span style=&quot;&quot;&gt; &lt;/span&gt;|&lt;span style=&quot;&quot;&gt; &lt;/span&gt;|&lt;span style=&quot;&quot;&gt; &lt;/span&gt;|-USSDService.smali&lt;/font&gt;&lt;/div&gt;&lt;div style=&quot;&quot;&gt;&lt;font style=&quot;font-size: 12px;&quot;&gt;|&lt;span style=&quot;&quot;&gt; &lt;/span&gt;|&lt;span style=&quot;&quot;&gt; &lt;/span&gt;|&lt;span style=&quot;&quot;&gt; &lt;/span&gt;|&lt;span style=&quot;&quot;&gt; &lt;/span&gt;|&lt;span style=&quot;&quot;&gt; &lt;/span&gt;|-USSDService$1.smali&lt;/font&gt;&lt;/div&gt;&lt;div style=&quot;&quot;&gt;&lt;font style=&quot;font-size: 12px;&quot;&gt;|&lt;span style=&quot;&quot;&gt; &lt;/span&gt;|&lt;span style=&quot;&quot;&gt; &lt;/span&gt;|&lt;span style=&quot;&quot;&gt; &lt;/span&gt;|&lt;span style=&quot;&quot;&gt; &lt;/span&gt;|-utils&lt;/font&gt;&lt;/div&gt;&lt;div style=&quot;&quot;&gt;&lt;font style=&quot;font-size: 12px;&quot;&gt;|&lt;span style=&quot;&quot;&gt; &lt;/span&gt;|&lt;span style=&quot;&quot;&gt; &lt;/span&gt;|&lt;span style=&quot;&quot;&gt; &lt;/span&gt;|&lt;span style=&quot;&quot;&gt; &lt;/span&gt;|&lt;span style=&quot;&quot;&gt; &lt;/span&gt;|-HttpSender.smali&lt;/font&gt;&lt;/div&gt;&lt;div style=&quot;&quot;&gt;&lt;font style=&quot;font-size: 12px;&quot;&gt;|&lt;span style=&quot;&quot;&gt; &lt;/span&gt;|&lt;span style=&quot;&quot;&gt; &lt;/span&gt;|&lt;span style=&quot;&quot;&gt; &lt;/span&gt;|&lt;span style=&quot;&quot;&gt; &lt;/span&gt;|&lt;span style=&quot;&quot;&gt; &lt;/span&gt;|-HttpSender$1.smali&lt;/font&gt;&lt;/div&gt;&lt;div style=&quot;&quot;&gt;&lt;font style=&quot;font-size: 12px;&quot;&gt;|&lt;span style=&quot;&quot;&gt; &lt;/span&gt;|&lt;span style=&quot;&quot;&gt; &lt;/span&gt;|&lt;span style=&quot;&quot;&gt; &lt;/span&gt;|&lt;span style=&quot;&quot;&gt; &lt;/span&gt;|&lt;span style=&quot;&quot;&gt; &lt;/span&gt;|-HttpSender$RequestType.smali&lt;/font&gt;&lt;/div&gt;&lt;div style=&quot;&quot;&gt;&lt;font style=&quot;font-size: 12px;&quot;&gt;|&lt;span style=&quot;&quot;&gt; &lt;/span&gt;|&lt;span style=&quot;&quot;&gt; &lt;/span&gt;|&lt;span style=&quot;&quot;&gt; &lt;/span&gt;|&lt;span style=&quot;&quot;&gt; &lt;/span&gt;|&lt;span style=&quot;&quot;&gt; &lt;/span&gt;|-Lists.smali&lt;/font&gt;&lt;/div&gt;&lt;div style=&quot;&quot;&gt;&lt;font style=&quot;font-size: 12px;&quot;&gt;|&lt;span style=&quot;&quot;&gt; &lt;/span&gt;|&lt;span style=&quot;&quot;&gt; &lt;/span&gt;|&lt;span style=&quot;&quot;&gt; &lt;/span&gt;|&lt;span style=&quot;&quot;&gt; &lt;/span&gt;|&lt;span style=&quot;&quot;&gt; &lt;/span&gt;|-ObjectSerializer.smali&lt;/font&gt;&lt;/div&gt;&lt;div style=&quot;&quot;&gt;&lt;font style=&quot;font-size: 12px;&quot;&gt;|&lt;span style=&quot;&quot;&gt; &lt;/span&gt;|&lt;span style=&quot;&quot;&gt; &lt;/span&gt;|&lt;span style=&quot;&quot;&gt; &lt;/span&gt;|&lt;span style=&quot;&quot;&gt; &lt;/span&gt;|&lt;span style=&quot;&quot;&gt; &lt;/span&gt;|-Parser.smali&lt;/font&gt;&lt;/div&gt;&lt;div style=&quot;&quot;&gt;&lt;font style=&quot;font-size: 12px;&quot;&gt;|&lt;span style=&quot;&quot;&gt; &lt;/span&gt;|&lt;span style=&quot;&quot;&gt; &lt;/span&gt;|&lt;span style=&quot;&quot;&gt; &lt;/span&gt;|&lt;span style=&quot;&quot;&gt; &lt;/span&gt;|&lt;span style=&quot;&quot;&gt; &lt;/span&gt;|-Sender.smali&lt;/font&gt;&lt;/div&gt;&lt;div style=&quot;&quot;&gt;&lt;font style=&quot;font-size: 12px;&quot;&gt;|&lt;span style=&quot;&quot;&gt; &lt;/span&gt;|&lt;span style=&quot;&quot;&gt; &lt;/span&gt;|&lt;span style=&quot;&quot;&gt; &lt;/span&gt;|&lt;span style=&quot;&quot;&gt; &lt;/span&gt;|&lt;span style=&quot;&quot;&gt; &lt;/span&gt;|-SmsProcessor.smali&lt;/font&gt;&lt;/div&gt;&lt;div style=&quot;&quot;&gt;&lt;font style=&quot;font-size: 12px;&quot;&gt;|&lt;span style=&quot;&quot;&gt; &lt;/span&gt;|&lt;span style=&quot;&quot;&gt; &lt;/span&gt;|&lt;span style=&quot;&quot;&gt; &lt;/span&gt;|&lt;span style=&quot;&quot;&gt; &lt;/span&gt;|&lt;span style=&quot;&quot;&gt; &lt;/span&gt;|-Utils.smali&lt;/font&gt;&lt;/div&gt;&lt;div style=&quot;&quot;&gt;&lt;font style=&quot;font-size: 12px;&quot;&gt;|&lt;span style=&quot;&quot;&gt; &lt;/span&gt;|&lt;span style=&quot;&quot;&gt; &lt;/span&gt;|&lt;span style=&quot;&quot;&gt; &lt;/span&gt;|&lt;span style=&quot;&quot;&gt; &lt;/span&gt;|&lt;span style=&quot;&quot;&gt; &lt;/span&gt;|-WindowData.smali&lt;/font&gt;&lt;/div&gt;&lt;div style=&quot;&quot;&gt;&lt;br&gt;&lt;/div&gt;" style="text;html=1;strokeColor=none;fillColor=none;align=left;verticalAlign=middle;whiteSpace=wrap;rounded=0;" parent="r62l4i-lVo5JHtnVVHP4-194" vertex="1">
          <mxGeometry width="246" height="580" as="geometry" />
        </mxCell>
        <mxCell id="r62l4i-lVo5JHtnVVHP4-196" value="" style="rounded=1;whiteSpace=wrap;html=1;strokeColor=#FF0000;fontSize=12;fillColor=none;strokeWidth=2;" parent="r62l4i-lVo5JHtnVVHP4-194" vertex="1">
          <mxGeometry x="24" y="88" width="72" height="30" as="geometry" />
        </mxCell>
        <mxCell id="r62l4i-lVo5JHtnVVHP4-197" value="" style="rounded=1;whiteSpace=wrap;html=1;strokeColor=#0000FF;strokeWidth=2;fontSize=12;fillColor=none;" parent="r62l4i-lVo5JHtnVVHP4-194" vertex="1">
          <mxGeometry x="34" y="131" width="156" height="59" as="geometry" />
        </mxCell>
        <mxCell id="r62l4i-lVo5JHtnVVHP4-198" value="" style="rounded=1;whiteSpace=wrap;html=1;strokeColor=#0000FF;strokeWidth=2;fontSize=12;fillColor=none;" parent="r62l4i-lVo5JHtnVVHP4-194" vertex="1">
          <mxGeometry x="33" y="191" width="128" height="70" as="geometry" />
        </mxCell>
        <mxCell id="r62l4i-lVo5JHtnVVHP4-199" value="" style="rounded=1;whiteSpace=wrap;html=1;strokeColor=#0000FF;strokeWidth=2;fontSize=12;fillColor=none;" parent="r62l4i-lVo5JHtnVVHP4-194" vertex="1">
          <mxGeometry x="33" y="420" width="181" height="44" as="geometry" />
        </mxCell>
        <mxCell id="r62l4i-lVo5JHtnVVHP4-200" value="" style="rounded=1;whiteSpace=wrap;html=1;strokeColor=#0000FF;strokeWidth=2;fontSize=12;fillColor=none;" parent="r62l4i-lVo5JHtnVVHP4-194" vertex="1">
          <mxGeometry x="32" y="476" width="136" height="73" as="geometry" />
        </mxCell>
      </root>
    </mxGraphModel>
  </diagram>
</mxfile>
